<mxfile host="app.diagrams.net" agent="Mozilla/5.0 (X11; Linux x86_64) AppleWebKit/537.36 (KHTML, like Gecko) Chrome/124.0.0.0 Safari/537.36" version="24.7.16">
  <diagram name="Page-1" id="HDngl4L4KSXhL5pjsNdD">
    <mxGraphModel dx="2924" dy="1146" grid="1" gridSize="10" guides="1" tooltips="1" connect="1" arrows="1" fold="1" page="1" pageScale="1" pageWidth="850" pageHeight="1100" math="0" shadow="0">
      <root>
        <mxCell id="0" />
        <mxCell id="1" parent="0" />
        <mxCell id="qbNoRBqUCLXTasIhkJyH-1" value="" style="rounded=0;whiteSpace=wrap;html=1;" vertex="1" parent="1">
          <mxGeometry x="80" y="240" width="40" height="40" as="geometry" />
        </mxCell>
        <mxCell id="qbNoRBqUCLXTasIhkJyH-2" value="" style="rounded=0;whiteSpace=wrap;html=1;fillColor=#f8cecc;strokeColor=#b85450;" vertex="1" parent="1">
          <mxGeometry x="120" y="240" width="40" height="40" as="geometry" />
        </mxCell>
        <mxCell id="qbNoRBqUCLXTasIhkJyH-3" value="" style="rounded=0;whiteSpace=wrap;html=1;" vertex="1" parent="1">
          <mxGeometry x="160" y="240" width="40" height="40" as="geometry" />
        </mxCell>
        <mxCell id="qbNoRBqUCLXTasIhkJyH-4" value="" style="rounded=0;whiteSpace=wrap;html=1;" vertex="1" parent="1">
          <mxGeometry x="200" y="240" width="40" height="40" as="geometry" />
        </mxCell>
        <mxCell id="qbNoRBqUCLXTasIhkJyH-9" value="" style="rounded=0;whiteSpace=wrap;html=1;" vertex="1" parent="1">
          <mxGeometry x="80" y="320" width="40" height="40" as="geometry" />
        </mxCell>
        <mxCell id="qbNoRBqUCLXTasIhkJyH-10" value="" style="rounded=0;whiteSpace=wrap;html=1;" vertex="1" parent="1">
          <mxGeometry x="120" y="320" width="40" height="40" as="geometry" />
        </mxCell>
        <mxCell id="qbNoRBqUCLXTasIhkJyH-11" value="" style="rounded=0;whiteSpace=wrap;html=1;" vertex="1" parent="1">
          <mxGeometry x="160" y="320" width="40" height="40" as="geometry" />
        </mxCell>
        <mxCell id="qbNoRBqUCLXTasIhkJyH-12" value="" style="rounded=0;whiteSpace=wrap;html=1;" vertex="1" parent="1">
          <mxGeometry x="200" y="320" width="40" height="40" as="geometry" />
        </mxCell>
        <mxCell id="qbNoRBqUCLXTasIhkJyH-13" value="" style="rounded=0;whiteSpace=wrap;html=1;" vertex="1" parent="1">
          <mxGeometry x="80" y="360" width="40" height="40" as="geometry" />
        </mxCell>
        <mxCell id="qbNoRBqUCLXTasIhkJyH-14" value="" style="rounded=0;whiteSpace=wrap;html=1;fillColor=#f8cecc;strokeColor=#b85450;" vertex="1" parent="1">
          <mxGeometry x="120" y="360" width="40" height="40" as="geometry" />
        </mxCell>
        <mxCell id="qbNoRBqUCLXTasIhkJyH-15" value="" style="rounded=0;whiteSpace=wrap;html=1;" vertex="1" parent="1">
          <mxGeometry x="160" y="360" width="40" height="40" as="geometry" />
        </mxCell>
        <mxCell id="qbNoRBqUCLXTasIhkJyH-16" value="" style="rounded=0;whiteSpace=wrap;html=1;" vertex="1" parent="1">
          <mxGeometry x="200" y="360" width="40" height="40" as="geometry" />
        </mxCell>
        <mxCell id="qbNoRBqUCLXTasIhkJyH-17" value="" style="rounded=0;whiteSpace=wrap;html=1;" vertex="1" parent="1">
          <mxGeometry x="80" y="400" width="40" height="40" as="geometry" />
        </mxCell>
        <mxCell id="qbNoRBqUCLXTasIhkJyH-18" value="" style="rounded=0;whiteSpace=wrap;html=1;" vertex="1" parent="1">
          <mxGeometry x="120" y="400" width="40" height="40" as="geometry" />
        </mxCell>
        <mxCell id="qbNoRBqUCLXTasIhkJyH-19" value="" style="rounded=0;whiteSpace=wrap;html=1;" vertex="1" parent="1">
          <mxGeometry x="160" y="400" width="40" height="40" as="geometry" />
        </mxCell>
        <mxCell id="qbNoRBqUCLXTasIhkJyH-20" value="" style="rounded=0;whiteSpace=wrap;html=1;" vertex="1" parent="1">
          <mxGeometry x="200" y="400" width="40" height="40" as="geometry" />
        </mxCell>
        <mxCell id="qbNoRBqUCLXTasIhkJyH-155" value="" style="rounded=0;whiteSpace=wrap;html=1;fillColor=none;" vertex="1" parent="1">
          <mxGeometry x="-320" width="40" height="40" as="geometry" />
        </mxCell>
        <mxCell id="qbNoRBqUCLXTasIhkJyH-156" value="" style="rounded=0;whiteSpace=wrap;html=1;fillColor=none;" vertex="1" parent="1">
          <mxGeometry x="-280" width="40" height="40" as="geometry" />
        </mxCell>
        <mxCell id="qbNoRBqUCLXTasIhkJyH-157" value="" style="rounded=0;whiteSpace=wrap;html=1;fillColor=none;" vertex="1" parent="1">
          <mxGeometry x="-240" width="40" height="40" as="geometry" />
        </mxCell>
        <mxCell id="qbNoRBqUCLXTasIhkJyH-158" value="" style="rounded=0;whiteSpace=wrap;html=1;fillColor=none;" vertex="1" parent="1">
          <mxGeometry x="-200" width="40" height="40" as="geometry" />
        </mxCell>
        <mxCell id="qbNoRBqUCLXTasIhkJyH-159" value="" style="rounded=0;whiteSpace=wrap;html=1;fillColor=none;" vertex="1" parent="1">
          <mxGeometry x="-320" y="40" width="40" height="40" as="geometry" />
        </mxCell>
        <mxCell id="qbNoRBqUCLXTasIhkJyH-160" value="" style="rounded=0;whiteSpace=wrap;html=1;fillColor=none;" vertex="1" parent="1">
          <mxGeometry x="-280" y="40" width="40" height="40" as="geometry" />
        </mxCell>
        <mxCell id="qbNoRBqUCLXTasIhkJyH-161" value="" style="rounded=0;whiteSpace=wrap;html=1;fillColor=none;" vertex="1" parent="1">
          <mxGeometry x="-240" y="40" width="40" height="40" as="geometry" />
        </mxCell>
        <mxCell id="qbNoRBqUCLXTasIhkJyH-162" value="" style="rounded=0;whiteSpace=wrap;html=1;fillColor=none;" vertex="1" parent="1">
          <mxGeometry x="-200" y="40" width="40" height="40" as="geometry" />
        </mxCell>
        <mxCell id="qbNoRBqUCLXTasIhkJyH-163" value="" style="rounded=0;whiteSpace=wrap;html=1;fillColor=none;" vertex="1" parent="1">
          <mxGeometry x="-320" y="80" width="40" height="40" as="geometry" />
        </mxCell>
        <mxCell id="qbNoRBqUCLXTasIhkJyH-164" value="" style="rounded=0;whiteSpace=wrap;html=1;fillColor=none;" vertex="1" parent="1">
          <mxGeometry x="-280" y="80" width="40" height="40" as="geometry" />
        </mxCell>
        <mxCell id="qbNoRBqUCLXTasIhkJyH-165" value="" style="rounded=0;whiteSpace=wrap;html=1;fillColor=none;" vertex="1" parent="1">
          <mxGeometry x="-240" y="80" width="40" height="40" as="geometry" />
        </mxCell>
        <mxCell id="qbNoRBqUCLXTasIhkJyH-166" value="" style="rounded=0;whiteSpace=wrap;html=1;fillColor=none;" vertex="1" parent="1">
          <mxGeometry x="-200" y="80" width="40" height="40" as="geometry" />
        </mxCell>
        <mxCell id="qbNoRBqUCLXTasIhkJyH-167" value="" style="rounded=0;whiteSpace=wrap;html=1;fillColor=none;" vertex="1" parent="1">
          <mxGeometry x="-350" y="30" width="40" height="40" as="geometry" />
        </mxCell>
        <mxCell id="qbNoRBqUCLXTasIhkJyH-168" value="" style="rounded=0;whiteSpace=wrap;html=1;fillColor=none;" vertex="1" parent="1">
          <mxGeometry x="-310" y="30" width="40" height="40" as="geometry" />
        </mxCell>
        <mxCell id="qbNoRBqUCLXTasIhkJyH-169" value="" style="rounded=0;whiteSpace=wrap;html=1;fillColor=none;" vertex="1" parent="1">
          <mxGeometry x="-270" y="30" width="40" height="40" as="geometry" />
        </mxCell>
        <mxCell id="qbNoRBqUCLXTasIhkJyH-170" value="" style="rounded=0;whiteSpace=wrap;html=1;fillColor=none;" vertex="1" parent="1">
          <mxGeometry x="-230" y="30" width="40" height="40" as="geometry" />
        </mxCell>
        <mxCell id="qbNoRBqUCLXTasIhkJyH-171" value="" style="rounded=0;whiteSpace=wrap;html=1;fillColor=none;" vertex="1" parent="1">
          <mxGeometry x="-350" y="70" width="40" height="40" as="geometry" />
        </mxCell>
        <mxCell id="qbNoRBqUCLXTasIhkJyH-172" value="" style="rounded=0;whiteSpace=wrap;html=1;fillColor=none;" vertex="1" parent="1">
          <mxGeometry x="-310" y="70" width="40" height="40" as="geometry" />
        </mxCell>
        <mxCell id="qbNoRBqUCLXTasIhkJyH-173" value="" style="rounded=0;whiteSpace=wrap;html=1;fillColor=none;" vertex="1" parent="1">
          <mxGeometry x="-270" y="70" width="40" height="40" as="geometry" />
        </mxCell>
        <mxCell id="qbNoRBqUCLXTasIhkJyH-174" value="" style="rounded=0;whiteSpace=wrap;html=1;fillColor=none;" vertex="1" parent="1">
          <mxGeometry x="-230" y="70" width="40" height="40" as="geometry" />
        </mxCell>
        <mxCell id="qbNoRBqUCLXTasIhkJyH-175" value="" style="rounded=0;whiteSpace=wrap;html=1;fillColor=none;" vertex="1" parent="1">
          <mxGeometry x="-350" y="110" width="40" height="40" as="geometry" />
        </mxCell>
        <mxCell id="qbNoRBqUCLXTasIhkJyH-176" value="" style="rounded=0;whiteSpace=wrap;html=1;fillColor=none;" vertex="1" parent="1">
          <mxGeometry x="-310" y="110" width="40" height="40" as="geometry" />
        </mxCell>
        <mxCell id="qbNoRBqUCLXTasIhkJyH-177" value="" style="rounded=0;whiteSpace=wrap;html=1;fillColor=none;" vertex="1" parent="1">
          <mxGeometry x="-270" y="110" width="40" height="40" as="geometry" />
        </mxCell>
        <mxCell id="qbNoRBqUCLXTasIhkJyH-178" value="" style="rounded=0;whiteSpace=wrap;html=1;fillColor=none;" vertex="1" parent="1">
          <mxGeometry x="-230" y="110" width="40" height="40" as="geometry" />
        </mxCell>
        <mxCell id="qbNoRBqUCLXTasIhkJyH-203" value="" style="rounded=0;whiteSpace=wrap;html=1;fillColor=none;" vertex="1" parent="1">
          <mxGeometry x="-380" y="60" width="40" height="40" as="geometry" />
        </mxCell>
        <mxCell id="qbNoRBqUCLXTasIhkJyH-204" value="" style="rounded=0;whiteSpace=wrap;html=1;fillColor=none;" vertex="1" parent="1">
          <mxGeometry x="-340" y="60" width="40" height="40" as="geometry" />
        </mxCell>
        <mxCell id="qbNoRBqUCLXTasIhkJyH-205" value="" style="rounded=0;whiteSpace=wrap;html=1;fillColor=none;" vertex="1" parent="1">
          <mxGeometry x="-300" y="60" width="40" height="40" as="geometry" />
        </mxCell>
        <mxCell id="qbNoRBqUCLXTasIhkJyH-206" value="" style="rounded=0;whiteSpace=wrap;html=1;fillColor=none;" vertex="1" parent="1">
          <mxGeometry x="-260" y="60" width="40" height="40" as="geometry" />
        </mxCell>
        <mxCell id="qbNoRBqUCLXTasIhkJyH-207" value="" style="rounded=0;whiteSpace=wrap;html=1;fillColor=none;" vertex="1" parent="1">
          <mxGeometry x="-380" y="100" width="40" height="40" as="geometry" />
        </mxCell>
        <mxCell id="qbNoRBqUCLXTasIhkJyH-208" value="" style="rounded=0;whiteSpace=wrap;html=1;fillColor=none;" vertex="1" parent="1">
          <mxGeometry x="-340" y="100" width="40" height="40" as="geometry" />
        </mxCell>
        <mxCell id="qbNoRBqUCLXTasIhkJyH-209" value="" style="rounded=0;whiteSpace=wrap;html=1;fillColor=none;" vertex="1" parent="1">
          <mxGeometry x="-300" y="100" width="40" height="40" as="geometry" />
        </mxCell>
        <mxCell id="qbNoRBqUCLXTasIhkJyH-210" value="" style="rounded=0;whiteSpace=wrap;html=1;fillColor=none;" vertex="1" parent="1">
          <mxGeometry x="-260" y="100" width="40" height="40" as="geometry" />
        </mxCell>
        <mxCell id="qbNoRBqUCLXTasIhkJyH-211" value="" style="rounded=0;whiteSpace=wrap;html=1;fillColor=none;" vertex="1" parent="1">
          <mxGeometry x="-380" y="140" width="40" height="40" as="geometry" />
        </mxCell>
        <mxCell id="qbNoRBqUCLXTasIhkJyH-212" value="" style="rounded=0;whiteSpace=wrap;html=1;fillColor=none;" vertex="1" parent="1">
          <mxGeometry x="-340" y="140" width="40" height="40" as="geometry" />
        </mxCell>
        <mxCell id="qbNoRBqUCLXTasIhkJyH-213" value="" style="rounded=0;whiteSpace=wrap;html=1;fillColor=none;" vertex="1" parent="1">
          <mxGeometry x="-300" y="140" width="40" height="40" as="geometry" />
        </mxCell>
        <mxCell id="qbNoRBqUCLXTasIhkJyH-214" value="" style="rounded=0;whiteSpace=wrap;html=1;fillColor=none;" vertex="1" parent="1">
          <mxGeometry x="-260" y="140" width="40" height="40" as="geometry" />
        </mxCell>
        <mxCell id="qbNoRBqUCLXTasIhkJyH-215" value="" style="rounded=0;whiteSpace=wrap;html=1;fillColor=none;" vertex="1" parent="1">
          <mxGeometry x="-410" y="90" width="40" height="40" as="geometry" />
        </mxCell>
        <mxCell id="qbNoRBqUCLXTasIhkJyH-216" value="" style="rounded=0;whiteSpace=wrap;html=1;fillColor=none;" vertex="1" parent="1">
          <mxGeometry x="-370" y="90" width="40" height="40" as="geometry" />
        </mxCell>
        <mxCell id="qbNoRBqUCLXTasIhkJyH-217" value="" style="rounded=0;whiteSpace=wrap;html=1;fillColor=none;" vertex="1" parent="1">
          <mxGeometry x="-330" y="90" width="40" height="40" as="geometry" />
        </mxCell>
        <mxCell id="qbNoRBqUCLXTasIhkJyH-218" value="" style="rounded=0;whiteSpace=wrap;html=1;fillColor=none;" vertex="1" parent="1">
          <mxGeometry x="-290" y="90" width="40" height="40" as="geometry" />
        </mxCell>
        <mxCell id="qbNoRBqUCLXTasIhkJyH-219" value="" style="rounded=0;whiteSpace=wrap;html=1;fillColor=none;" vertex="1" parent="1">
          <mxGeometry x="-410" y="130" width="40" height="40" as="geometry" />
        </mxCell>
        <mxCell id="qbNoRBqUCLXTasIhkJyH-220" value="" style="rounded=0;whiteSpace=wrap;html=1;fillColor=none;" vertex="1" parent="1">
          <mxGeometry x="-370" y="130" width="40" height="40" as="geometry" />
        </mxCell>
        <mxCell id="qbNoRBqUCLXTasIhkJyH-221" value="" style="rounded=0;whiteSpace=wrap;html=1;fillColor=none;" vertex="1" parent="1">
          <mxGeometry x="-330" y="130" width="40" height="40" as="geometry" />
        </mxCell>
        <mxCell id="qbNoRBqUCLXTasIhkJyH-222" value="" style="rounded=0;whiteSpace=wrap;html=1;fillColor=none;" vertex="1" parent="1">
          <mxGeometry x="-290" y="130" width="40" height="40" as="geometry" />
        </mxCell>
        <mxCell id="qbNoRBqUCLXTasIhkJyH-223" value="" style="rounded=0;whiteSpace=wrap;html=1;fillColor=none;" vertex="1" parent="1">
          <mxGeometry x="-410" y="170" width="40" height="40" as="geometry" />
        </mxCell>
        <mxCell id="qbNoRBqUCLXTasIhkJyH-224" value="" style="rounded=0;whiteSpace=wrap;html=1;fillColor=none;" vertex="1" parent="1">
          <mxGeometry x="-370" y="170" width="40" height="40" as="geometry" />
        </mxCell>
        <mxCell id="qbNoRBqUCLXTasIhkJyH-225" value="" style="rounded=0;whiteSpace=wrap;html=1;fillColor=none;" vertex="1" parent="1">
          <mxGeometry x="-330" y="170" width="40" height="40" as="geometry" />
        </mxCell>
        <mxCell id="qbNoRBqUCLXTasIhkJyH-226" value="" style="rounded=0;whiteSpace=wrap;html=1;fillColor=none;" vertex="1" parent="1">
          <mxGeometry x="-290" y="170" width="40" height="40" as="geometry" />
        </mxCell>
        <mxCell id="qbNoRBqUCLXTasIhkJyH-227" value="" style="endArrow=none;html=1;rounded=0;exitX=1;exitY=1;exitDx=0;exitDy=0;" edge="1" parent="1" source="qbNoRBqUCLXTasIhkJyH-226">
          <mxGeometry width="50" height="50" relative="1" as="geometry">
            <mxPoint x="-210" y="170" as="sourcePoint" />
            <mxPoint x="-160" y="120" as="targetPoint" />
          </mxGeometry>
        </mxCell>
        <mxCell id="qbNoRBqUCLXTasIhkJyH-228" value="" style="endArrow=none;html=1;rounded=0;exitX=1;exitY=1;exitDx=0;exitDy=0;" edge="1" parent="1">
          <mxGeometry width="50" height="50" relative="1" as="geometry">
            <mxPoint x="-250" y="170" as="sourcePoint" />
            <mxPoint x="-160" y="80" as="targetPoint" />
          </mxGeometry>
        </mxCell>
        <mxCell id="qbNoRBqUCLXTasIhkJyH-229" value="" style="endArrow=none;html=1;rounded=0;exitX=1;exitY=1;exitDx=0;exitDy=0;" edge="1" parent="1">
          <mxGeometry width="50" height="50" relative="1" as="geometry">
            <mxPoint x="-250" y="130" as="sourcePoint" />
            <mxPoint x="-160" y="40" as="targetPoint" />
          </mxGeometry>
        </mxCell>
        <mxCell id="qbNoRBqUCLXTasIhkJyH-230" value="" style="endArrow=none;html=1;rounded=0;exitX=1;exitY=1;exitDx=0;exitDy=0;" edge="1" parent="1">
          <mxGeometry width="50" height="50" relative="1" as="geometry">
            <mxPoint x="-250" y="90" as="sourcePoint" />
            <mxPoint x="-160" as="targetPoint" />
          </mxGeometry>
        </mxCell>
        <mxCell id="qbNoRBqUCLXTasIhkJyH-231" value="" style="endArrow=none;html=1;rounded=0;exitX=1;exitY=1;exitDx=0;exitDy=0;" edge="1" parent="1">
          <mxGeometry width="50" height="50" relative="1" as="geometry">
            <mxPoint x="-290" y="90" as="sourcePoint" />
            <mxPoint x="-200" as="targetPoint" />
          </mxGeometry>
        </mxCell>
        <mxCell id="qbNoRBqUCLXTasIhkJyH-233" value="" style="endArrow=none;html=1;rounded=0;exitX=1;exitY=1;exitDx=0;exitDy=0;" edge="1" parent="1">
          <mxGeometry width="50" height="50" relative="1" as="geometry">
            <mxPoint x="-330" y="90" as="sourcePoint" />
            <mxPoint x="-240" as="targetPoint" />
          </mxGeometry>
        </mxCell>
        <mxCell id="qbNoRBqUCLXTasIhkJyH-234" value="" style="endArrow=none;html=1;rounded=0;exitX=1;exitY=1;exitDx=0;exitDy=0;" edge="1" parent="1">
          <mxGeometry width="50" height="50" relative="1" as="geometry">
            <mxPoint x="-370" y="90" as="sourcePoint" />
            <mxPoint x="-280" as="targetPoint" />
          </mxGeometry>
        </mxCell>
        <mxCell id="qbNoRBqUCLXTasIhkJyH-235" value="" style="endArrow=none;html=1;rounded=0;exitX=1;exitY=1;exitDx=0;exitDy=0;" edge="1" parent="1">
          <mxGeometry width="50" height="50" relative="1" as="geometry">
            <mxPoint x="-410" y="90" as="sourcePoint" />
            <mxPoint x="-320" as="targetPoint" />
          </mxGeometry>
        </mxCell>
        <mxCell id="qbNoRBqUCLXTasIhkJyH-236" value="" style="endArrow=none;html=1;rounded=0;exitX=1;exitY=1;exitDx=0;exitDy=0;" edge="1" parent="1">
          <mxGeometry width="50" height="50" relative="1" as="geometry">
            <mxPoint x="-290" y="210" as="sourcePoint" />
            <mxPoint x="-200" y="120" as="targetPoint" />
          </mxGeometry>
        </mxCell>
        <mxCell id="qbNoRBqUCLXTasIhkJyH-237" value="" style="endArrow=none;html=1;rounded=0;exitX=1;exitY=1;exitDx=0;exitDy=0;" edge="1" parent="1">
          <mxGeometry width="50" height="50" relative="1" as="geometry">
            <mxPoint x="-330" y="210" as="sourcePoint" />
            <mxPoint x="-240" y="120" as="targetPoint" />
          </mxGeometry>
        </mxCell>
        <mxCell id="qbNoRBqUCLXTasIhkJyH-238" value="" style="endArrow=none;html=1;rounded=0;exitX=1;exitY=1;exitDx=0;exitDy=0;" edge="1" parent="1">
          <mxGeometry width="50" height="50" relative="1" as="geometry">
            <mxPoint x="-370" y="210" as="sourcePoint" />
            <mxPoint x="-280" y="120" as="targetPoint" />
          </mxGeometry>
        </mxCell>
        <mxCell id="qbNoRBqUCLXTasIhkJyH-239" value="" style="endArrow=none;html=1;rounded=0;exitX=1;exitY=1;exitDx=0;exitDy=0;" edge="1" parent="1">
          <mxGeometry width="50" height="50" relative="1" as="geometry">
            <mxPoint x="-410" y="210" as="sourcePoint" />
            <mxPoint x="-320" y="120" as="targetPoint" />
          </mxGeometry>
        </mxCell>
        <mxCell id="qbNoRBqUCLXTasIhkJyH-240" value="" style="endArrow=none;html=1;rounded=0;exitX=1;exitY=1;exitDx=0;exitDy=0;" edge="1" parent="1">
          <mxGeometry width="50" height="50" relative="1" as="geometry">
            <mxPoint x="-410" y="170" as="sourcePoint" />
            <mxPoint x="-320" y="80" as="targetPoint" />
          </mxGeometry>
        </mxCell>
        <mxCell id="qbNoRBqUCLXTasIhkJyH-242" value="" style="endArrow=none;html=1;rounded=0;exitX=1;exitY=1;exitDx=0;exitDy=0;" edge="1" parent="1">
          <mxGeometry width="50" height="50" relative="1" as="geometry">
            <mxPoint x="-410" y="130" as="sourcePoint" />
            <mxPoint x="-320" y="40" as="targetPoint" />
          </mxGeometry>
        </mxCell>
        <mxCell id="qbNoRBqUCLXTasIhkJyH-243" value="" style="rounded=0;whiteSpace=wrap;html=1;" vertex="1" parent="1">
          <mxGeometry x="280" y="240" width="40" height="40" as="geometry" />
        </mxCell>
        <mxCell id="qbNoRBqUCLXTasIhkJyH-244" value="" style="rounded=0;whiteSpace=wrap;html=1;" vertex="1" parent="1">
          <mxGeometry x="320" y="240" width="40" height="40" as="geometry" />
        </mxCell>
        <mxCell id="qbNoRBqUCLXTasIhkJyH-245" value="" style="rounded=0;whiteSpace=wrap;html=1;fillColor=#f8cecc;strokeColor=#b85450;" vertex="1" parent="1">
          <mxGeometry x="360" y="240" width="40" height="40" as="geometry" />
        </mxCell>
        <mxCell id="qbNoRBqUCLXTasIhkJyH-246" value="" style="rounded=0;whiteSpace=wrap;html=1;" vertex="1" parent="1">
          <mxGeometry x="400" y="240" width="40" height="40" as="geometry" />
        </mxCell>
        <mxCell id="qbNoRBqUCLXTasIhkJyH-247" value="" style="rounded=0;whiteSpace=wrap;html=1;" vertex="1" parent="1">
          <mxGeometry x="480" y="240" width="40" height="40" as="geometry" />
        </mxCell>
        <mxCell id="qbNoRBqUCLXTasIhkJyH-248" value="" style="rounded=0;whiteSpace=wrap;html=1;" vertex="1" parent="1">
          <mxGeometry x="520" y="240" width="40" height="40" as="geometry" />
        </mxCell>
        <mxCell id="qbNoRBqUCLXTasIhkJyH-249" value="" style="rounded=0;whiteSpace=wrap;html=1;" vertex="1" parent="1">
          <mxGeometry x="560" y="240" width="40" height="40" as="geometry" />
        </mxCell>
        <mxCell id="qbNoRBqUCLXTasIhkJyH-250" value="" style="rounded=0;whiteSpace=wrap;html=1;fillColor=#f8cecc;strokeColor=#b85450;" vertex="1" parent="1">
          <mxGeometry x="600" y="240" width="40" height="40" as="geometry" />
        </mxCell>
        <mxCell id="qbNoRBqUCLXTasIhkJyH-251" value="" style="rounded=0;whiteSpace=wrap;html=1;fillColor=#f8cecc;strokeColor=#b85450;" vertex="1" parent="1">
          <mxGeometry x="-120" y="240" width="40" height="40" as="geometry" />
        </mxCell>
        <mxCell id="qbNoRBqUCLXTasIhkJyH-252" value="" style="rounded=0;whiteSpace=wrap;html=1;" vertex="1" parent="1">
          <mxGeometry x="-80" y="240" width="40" height="40" as="geometry" />
        </mxCell>
        <mxCell id="qbNoRBqUCLXTasIhkJyH-253" value="" style="rounded=0;whiteSpace=wrap;html=1;" vertex="1" parent="1">
          <mxGeometry x="-40" y="240" width="40" height="40" as="geometry" />
        </mxCell>
        <mxCell id="qbNoRBqUCLXTasIhkJyH-254" value="" style="rounded=0;whiteSpace=wrap;html=1;" vertex="1" parent="1">
          <mxGeometry y="240" width="40" height="40" as="geometry" />
        </mxCell>
        <mxCell id="qbNoRBqUCLXTasIhkJyH-255" value="" style="rounded=0;whiteSpace=wrap;html=1;" vertex="1" parent="1">
          <mxGeometry x="-120" y="320" width="40" height="40" as="geometry" />
        </mxCell>
        <mxCell id="qbNoRBqUCLXTasIhkJyH-256" value="" style="rounded=0;whiteSpace=wrap;html=1;" vertex="1" parent="1">
          <mxGeometry x="-80" y="320" width="40" height="40" as="geometry" />
        </mxCell>
        <mxCell id="qbNoRBqUCLXTasIhkJyH-257" value="" style="rounded=0;whiteSpace=wrap;html=1;" vertex="1" parent="1">
          <mxGeometry x="-40" y="320" width="40" height="40" as="geometry" />
        </mxCell>
        <mxCell id="qbNoRBqUCLXTasIhkJyH-258" value="" style="rounded=0;whiteSpace=wrap;html=1;" vertex="1" parent="1">
          <mxGeometry y="320" width="40" height="40" as="geometry" />
        </mxCell>
        <mxCell id="qbNoRBqUCLXTasIhkJyH-259" value="" style="rounded=0;whiteSpace=wrap;html=1;fillColor=#f8cecc;strokeColor=#b85450;" vertex="1" parent="1">
          <mxGeometry x="-120" y="360" width="40" height="40" as="geometry" />
        </mxCell>
        <mxCell id="qbNoRBqUCLXTasIhkJyH-260" value="" style="rounded=0;whiteSpace=wrap;html=1;" vertex="1" parent="1">
          <mxGeometry x="-80" y="360" width="40" height="40" as="geometry" />
        </mxCell>
        <mxCell id="qbNoRBqUCLXTasIhkJyH-261" value="" style="rounded=0;whiteSpace=wrap;html=1;" vertex="1" parent="1">
          <mxGeometry x="-40" y="360" width="40" height="40" as="geometry" />
        </mxCell>
        <mxCell id="qbNoRBqUCLXTasIhkJyH-262" value="" style="rounded=0;whiteSpace=wrap;html=1;" vertex="1" parent="1">
          <mxGeometry y="360" width="40" height="40" as="geometry" />
        </mxCell>
        <mxCell id="qbNoRBqUCLXTasIhkJyH-263" value="" style="rounded=0;whiteSpace=wrap;html=1;" vertex="1" parent="1">
          <mxGeometry x="-120" y="400" width="40" height="40" as="geometry" />
        </mxCell>
        <mxCell id="qbNoRBqUCLXTasIhkJyH-264" value="" style="rounded=0;whiteSpace=wrap;html=1;" vertex="1" parent="1">
          <mxGeometry x="-80" y="400" width="40" height="40" as="geometry" />
        </mxCell>
        <mxCell id="qbNoRBqUCLXTasIhkJyH-265" value="" style="rounded=0;whiteSpace=wrap;html=1;" vertex="1" parent="1">
          <mxGeometry x="-40" y="400" width="40" height="40" as="geometry" />
        </mxCell>
        <mxCell id="qbNoRBqUCLXTasIhkJyH-266" value="" style="rounded=0;whiteSpace=wrap;html=1;" vertex="1" parent="1">
          <mxGeometry y="400" width="40" height="40" as="geometry" />
        </mxCell>
        <mxCell id="qbNoRBqUCLXTasIhkJyH-267" value="" style="rounded=0;whiteSpace=wrap;html=1;" vertex="1" parent="1">
          <mxGeometry x="280" y="320" width="40" height="40" as="geometry" />
        </mxCell>
        <mxCell id="qbNoRBqUCLXTasIhkJyH-268" value="" style="rounded=0;whiteSpace=wrap;html=1;" vertex="1" parent="1">
          <mxGeometry x="320" y="320" width="40" height="40" as="geometry" />
        </mxCell>
        <mxCell id="qbNoRBqUCLXTasIhkJyH-269" value="" style="rounded=0;whiteSpace=wrap;html=1;" vertex="1" parent="1">
          <mxGeometry x="360" y="320" width="40" height="40" as="geometry" />
        </mxCell>
        <mxCell id="qbNoRBqUCLXTasIhkJyH-270" value="" style="rounded=0;whiteSpace=wrap;html=1;" vertex="1" parent="1">
          <mxGeometry x="400" y="320" width="40" height="40" as="geometry" />
        </mxCell>
        <mxCell id="qbNoRBqUCLXTasIhkJyH-271" value="" style="rounded=0;whiteSpace=wrap;html=1;" vertex="1" parent="1">
          <mxGeometry x="280" y="360" width="40" height="40" as="geometry" />
        </mxCell>
        <mxCell id="qbNoRBqUCLXTasIhkJyH-272" value="" style="rounded=0;whiteSpace=wrap;html=1;" vertex="1" parent="1">
          <mxGeometry x="320" y="360" width="40" height="40" as="geometry" />
        </mxCell>
        <mxCell id="qbNoRBqUCLXTasIhkJyH-273" value="" style="rounded=0;whiteSpace=wrap;html=1;fillColor=#f8cecc;strokeColor=#b85450;" vertex="1" parent="1">
          <mxGeometry x="360" y="360" width="40" height="40" as="geometry" />
        </mxCell>
        <mxCell id="qbNoRBqUCLXTasIhkJyH-274" value="" style="rounded=0;whiteSpace=wrap;html=1;" vertex="1" parent="1">
          <mxGeometry x="400" y="360" width="40" height="40" as="geometry" />
        </mxCell>
        <mxCell id="qbNoRBqUCLXTasIhkJyH-275" value="" style="rounded=0;whiteSpace=wrap;html=1;" vertex="1" parent="1">
          <mxGeometry x="280" y="400" width="40" height="40" as="geometry" />
        </mxCell>
        <mxCell id="qbNoRBqUCLXTasIhkJyH-276" value="" style="rounded=0;whiteSpace=wrap;html=1;" vertex="1" parent="1">
          <mxGeometry x="320" y="400" width="40" height="40" as="geometry" />
        </mxCell>
        <mxCell id="qbNoRBqUCLXTasIhkJyH-277" value="" style="rounded=0;whiteSpace=wrap;html=1;" vertex="1" parent="1">
          <mxGeometry x="360" y="400" width="40" height="40" as="geometry" />
        </mxCell>
        <mxCell id="qbNoRBqUCLXTasIhkJyH-278" value="" style="rounded=0;whiteSpace=wrap;html=1;" vertex="1" parent="1">
          <mxGeometry x="400" y="400" width="40" height="40" as="geometry" />
        </mxCell>
        <mxCell id="qbNoRBqUCLXTasIhkJyH-279" value="" style="rounded=0;whiteSpace=wrap;html=1;" vertex="1" parent="1">
          <mxGeometry x="480" y="320" width="40" height="40" as="geometry" />
        </mxCell>
        <mxCell id="qbNoRBqUCLXTasIhkJyH-280" value="" style="rounded=0;whiteSpace=wrap;html=1;" vertex="1" parent="1">
          <mxGeometry x="520" y="320" width="40" height="40" as="geometry" />
        </mxCell>
        <mxCell id="qbNoRBqUCLXTasIhkJyH-281" value="" style="rounded=0;whiteSpace=wrap;html=1;" vertex="1" parent="1">
          <mxGeometry x="560" y="320" width="40" height="40" as="geometry" />
        </mxCell>
        <mxCell id="qbNoRBqUCLXTasIhkJyH-282" value="" style="rounded=0;whiteSpace=wrap;html=1;" vertex="1" parent="1">
          <mxGeometry x="600" y="320" width="40" height="40" as="geometry" />
        </mxCell>
        <mxCell id="qbNoRBqUCLXTasIhkJyH-283" value="" style="rounded=0;whiteSpace=wrap;html=1;" vertex="1" parent="1">
          <mxGeometry x="480" y="360" width="40" height="40" as="geometry" />
        </mxCell>
        <mxCell id="qbNoRBqUCLXTasIhkJyH-284" value="" style="rounded=0;whiteSpace=wrap;html=1;" vertex="1" parent="1">
          <mxGeometry x="520" y="360" width="40" height="40" as="geometry" />
        </mxCell>
        <mxCell id="qbNoRBqUCLXTasIhkJyH-285" value="" style="rounded=0;whiteSpace=wrap;html=1;" vertex="1" parent="1">
          <mxGeometry x="560" y="360" width="40" height="40" as="geometry" />
        </mxCell>
        <mxCell id="qbNoRBqUCLXTasIhkJyH-286" value="" style="rounded=0;whiteSpace=wrap;html=1;fillColor=#f8cecc;strokeColor=#b85450;" vertex="1" parent="1">
          <mxGeometry x="600" y="360" width="40" height="40" as="geometry" />
        </mxCell>
        <mxCell id="qbNoRBqUCLXTasIhkJyH-287" value="" style="rounded=0;whiteSpace=wrap;html=1;" vertex="1" parent="1">
          <mxGeometry x="480" y="400" width="40" height="40" as="geometry" />
        </mxCell>
        <mxCell id="qbNoRBqUCLXTasIhkJyH-288" value="" style="rounded=0;whiteSpace=wrap;html=1;" vertex="1" parent="1">
          <mxGeometry x="520" y="400" width="40" height="40" as="geometry" />
        </mxCell>
        <mxCell id="qbNoRBqUCLXTasIhkJyH-289" value="" style="rounded=0;whiteSpace=wrap;html=1;" vertex="1" parent="1">
          <mxGeometry x="560" y="400" width="40" height="40" as="geometry" />
        </mxCell>
        <mxCell id="qbNoRBqUCLXTasIhkJyH-290" value="" style="rounded=0;whiteSpace=wrap;html=1;" vertex="1" parent="1">
          <mxGeometry x="600" y="400" width="40" height="40" as="geometry" />
        </mxCell>
        <mxCell id="qbNoRBqUCLXTasIhkJyH-291" value="" style="rounded=0;whiteSpace=wrap;html=1;" vertex="1" parent="1">
          <mxGeometry x="80" y="480" width="40" height="40" as="geometry" />
        </mxCell>
        <mxCell id="qbNoRBqUCLXTasIhkJyH-292" value="" style="rounded=0;whiteSpace=wrap;html=1;" vertex="1" parent="1">
          <mxGeometry x="120" y="480" width="40" height="40" as="geometry" />
        </mxCell>
        <mxCell id="qbNoRBqUCLXTasIhkJyH-293" value="" style="rounded=0;whiteSpace=wrap;html=1;" vertex="1" parent="1">
          <mxGeometry x="160" y="480" width="40" height="40" as="geometry" />
        </mxCell>
        <mxCell id="qbNoRBqUCLXTasIhkJyH-294" value="" style="rounded=0;whiteSpace=wrap;html=1;" vertex="1" parent="1">
          <mxGeometry x="200" y="480" width="40" height="40" as="geometry" />
        </mxCell>
        <mxCell id="qbNoRBqUCLXTasIhkJyH-295" value="" style="rounded=0;whiteSpace=wrap;html=1;fillColor=#f8cecc;strokeColor=#b85450;" vertex="1" parent="1">
          <mxGeometry x="80" y="520" width="40" height="40" as="geometry" />
        </mxCell>
        <mxCell id="qbNoRBqUCLXTasIhkJyH-296" value="" style="rounded=0;whiteSpace=wrap;html=1;" vertex="1" parent="1">
          <mxGeometry x="120" y="520" width="40" height="40" as="geometry" />
        </mxCell>
        <mxCell id="qbNoRBqUCLXTasIhkJyH-297" value="" style="rounded=0;whiteSpace=wrap;html=1;" vertex="1" parent="1">
          <mxGeometry x="160" y="520" width="40" height="40" as="geometry" />
        </mxCell>
        <mxCell id="qbNoRBqUCLXTasIhkJyH-298" value="" style="rounded=0;whiteSpace=wrap;html=1;" vertex="1" parent="1">
          <mxGeometry x="200" y="520" width="40" height="40" as="geometry" />
        </mxCell>
        <mxCell id="qbNoRBqUCLXTasIhkJyH-299" value="" style="rounded=0;whiteSpace=wrap;html=1;" vertex="1" parent="1">
          <mxGeometry x="80" y="560" width="40" height="40" as="geometry" />
        </mxCell>
        <mxCell id="qbNoRBqUCLXTasIhkJyH-300" value="" style="rounded=0;whiteSpace=wrap;html=1;" vertex="1" parent="1">
          <mxGeometry x="120" y="560" width="40" height="40" as="geometry" />
        </mxCell>
        <mxCell id="qbNoRBqUCLXTasIhkJyH-301" value="" style="rounded=0;whiteSpace=wrap;html=1;" vertex="1" parent="1">
          <mxGeometry x="160" y="560" width="40" height="40" as="geometry" />
        </mxCell>
        <mxCell id="qbNoRBqUCLXTasIhkJyH-302" value="" style="rounded=0;whiteSpace=wrap;html=1;" vertex="1" parent="1">
          <mxGeometry x="200" y="560" width="40" height="40" as="geometry" />
        </mxCell>
        <mxCell id="qbNoRBqUCLXTasIhkJyH-303" value="" style="rounded=0;whiteSpace=wrap;html=1;" vertex="1" parent="1">
          <mxGeometry x="-120" y="480" width="40" height="40" as="geometry" />
        </mxCell>
        <mxCell id="qbNoRBqUCLXTasIhkJyH-304" value="" style="rounded=0;whiteSpace=wrap;html=1;" vertex="1" parent="1">
          <mxGeometry x="-80" y="480" width="40" height="40" as="geometry" />
        </mxCell>
        <mxCell id="qbNoRBqUCLXTasIhkJyH-305" value="" style="rounded=0;whiteSpace=wrap;html=1;" vertex="1" parent="1">
          <mxGeometry x="-40" y="480" width="40" height="40" as="geometry" />
        </mxCell>
        <mxCell id="qbNoRBqUCLXTasIhkJyH-306" value="" style="rounded=0;whiteSpace=wrap;html=1;" vertex="1" parent="1">
          <mxGeometry y="480" width="40" height="40" as="geometry" />
        </mxCell>
        <mxCell id="qbNoRBqUCLXTasIhkJyH-307" value="" style="rounded=0;whiteSpace=wrap;html=1;" vertex="1" parent="1">
          <mxGeometry x="-120" y="520" width="40" height="40" as="geometry" />
        </mxCell>
        <mxCell id="qbNoRBqUCLXTasIhkJyH-308" value="" style="rounded=0;whiteSpace=wrap;html=1;" vertex="1" parent="1">
          <mxGeometry x="-80" y="520" width="40" height="40" as="geometry" />
        </mxCell>
        <mxCell id="qbNoRBqUCLXTasIhkJyH-309" value="" style="rounded=0;whiteSpace=wrap;html=1;" vertex="1" parent="1">
          <mxGeometry x="-40" y="520" width="40" height="40" as="geometry" />
        </mxCell>
        <mxCell id="qbNoRBqUCLXTasIhkJyH-310" value="" style="rounded=0;whiteSpace=wrap;html=1;" vertex="1" parent="1">
          <mxGeometry y="520" width="40" height="40" as="geometry" />
        </mxCell>
        <mxCell id="qbNoRBqUCLXTasIhkJyH-311" value="" style="rounded=0;whiteSpace=wrap;html=1;fillColor=#f8cecc;strokeColor=#b85450;" vertex="1" parent="1">
          <mxGeometry x="-120" y="560" width="40" height="40" as="geometry" />
        </mxCell>
        <mxCell id="qbNoRBqUCLXTasIhkJyH-312" value="" style="rounded=0;whiteSpace=wrap;html=1;" vertex="1" parent="1">
          <mxGeometry x="-80" y="560" width="40" height="40" as="geometry" />
        </mxCell>
        <mxCell id="qbNoRBqUCLXTasIhkJyH-313" value="" style="rounded=0;whiteSpace=wrap;html=1;" vertex="1" parent="1">
          <mxGeometry x="-40" y="560" width="40" height="40" as="geometry" />
        </mxCell>
        <mxCell id="qbNoRBqUCLXTasIhkJyH-314" value="" style="rounded=0;whiteSpace=wrap;html=1;" vertex="1" parent="1">
          <mxGeometry y="560" width="40" height="40" as="geometry" />
        </mxCell>
        <mxCell id="qbNoRBqUCLXTasIhkJyH-315" value="" style="rounded=0;whiteSpace=wrap;html=1;fillColor=#f8cecc;strokeColor=#b85450;" vertex="1" parent="1">
          <mxGeometry x="280" y="480" width="40" height="40" as="geometry" />
        </mxCell>
        <mxCell id="qbNoRBqUCLXTasIhkJyH-316" value="" style="rounded=0;whiteSpace=wrap;html=1;" vertex="1" parent="1">
          <mxGeometry x="320" y="480" width="40" height="40" as="geometry" />
        </mxCell>
        <mxCell id="qbNoRBqUCLXTasIhkJyH-317" value="" style="rounded=0;whiteSpace=wrap;html=1;" vertex="1" parent="1">
          <mxGeometry x="360" y="480" width="40" height="40" as="geometry" />
        </mxCell>
        <mxCell id="qbNoRBqUCLXTasIhkJyH-318" value="" style="rounded=0;whiteSpace=wrap;html=1;" vertex="1" parent="1">
          <mxGeometry x="400" y="480" width="40" height="40" as="geometry" />
        </mxCell>
        <mxCell id="qbNoRBqUCLXTasIhkJyH-319" value="" style="rounded=0;whiteSpace=wrap;html=1;" vertex="1" parent="1">
          <mxGeometry x="280" y="520" width="40" height="40" as="geometry" />
        </mxCell>
        <mxCell id="qbNoRBqUCLXTasIhkJyH-320" value="" style="rounded=0;whiteSpace=wrap;html=1;" vertex="1" parent="1">
          <mxGeometry x="320" y="520" width="40" height="40" as="geometry" />
        </mxCell>
        <mxCell id="qbNoRBqUCLXTasIhkJyH-321" value="" style="rounded=0;whiteSpace=wrap;html=1;" vertex="1" parent="1">
          <mxGeometry x="360" y="520" width="40" height="40" as="geometry" />
        </mxCell>
        <mxCell id="qbNoRBqUCLXTasIhkJyH-322" value="" style="rounded=0;whiteSpace=wrap;html=1;" vertex="1" parent="1">
          <mxGeometry x="400" y="520" width="40" height="40" as="geometry" />
        </mxCell>
        <mxCell id="qbNoRBqUCLXTasIhkJyH-323" value="" style="rounded=0;whiteSpace=wrap;html=1;" vertex="1" parent="1">
          <mxGeometry x="280" y="560" width="40" height="40" as="geometry" />
        </mxCell>
        <mxCell id="qbNoRBqUCLXTasIhkJyH-324" value="" style="rounded=0;whiteSpace=wrap;html=1;" vertex="1" parent="1">
          <mxGeometry x="320" y="560" width="40" height="40" as="geometry" />
        </mxCell>
        <mxCell id="qbNoRBqUCLXTasIhkJyH-325" value="" style="rounded=0;whiteSpace=wrap;html=1;" vertex="1" parent="1">
          <mxGeometry x="360" y="560" width="40" height="40" as="geometry" />
        </mxCell>
        <mxCell id="qbNoRBqUCLXTasIhkJyH-326" value="" style="rounded=0;whiteSpace=wrap;html=1;" vertex="1" parent="1">
          <mxGeometry x="400" y="560" width="40" height="40" as="geometry" />
        </mxCell>
        <mxCell id="qbNoRBqUCLXTasIhkJyH-327" value="" style="rounded=0;whiteSpace=wrap;html=1;" vertex="1" parent="1">
          <mxGeometry x="480" y="480" width="40" height="40" as="geometry" />
        </mxCell>
        <mxCell id="qbNoRBqUCLXTasIhkJyH-328" value="" style="rounded=0;whiteSpace=wrap;html=1;fillColor=#f8cecc;strokeColor=#b85450;" vertex="1" parent="1">
          <mxGeometry x="520" y="480" width="40" height="40" as="geometry" />
        </mxCell>
        <mxCell id="qbNoRBqUCLXTasIhkJyH-329" value="" style="rounded=0;whiteSpace=wrap;html=1;" vertex="1" parent="1">
          <mxGeometry x="560" y="480" width="40" height="40" as="geometry" />
        </mxCell>
        <mxCell id="qbNoRBqUCLXTasIhkJyH-330" value="" style="rounded=0;whiteSpace=wrap;html=1;" vertex="1" parent="1">
          <mxGeometry x="600" y="480" width="40" height="40" as="geometry" />
        </mxCell>
        <mxCell id="qbNoRBqUCLXTasIhkJyH-331" value="" style="rounded=0;whiteSpace=wrap;html=1;" vertex="1" parent="1">
          <mxGeometry x="480" y="520" width="40" height="40" as="geometry" />
        </mxCell>
        <mxCell id="qbNoRBqUCLXTasIhkJyH-332" value="" style="rounded=0;whiteSpace=wrap;html=1;" vertex="1" parent="1">
          <mxGeometry x="520" y="520" width="40" height="40" as="geometry" />
        </mxCell>
        <mxCell id="qbNoRBqUCLXTasIhkJyH-333" value="" style="rounded=0;whiteSpace=wrap;html=1;" vertex="1" parent="1">
          <mxGeometry x="560" y="520" width="40" height="40" as="geometry" />
        </mxCell>
        <mxCell id="qbNoRBqUCLXTasIhkJyH-334" value="" style="rounded=0;whiteSpace=wrap;html=1;" vertex="1" parent="1">
          <mxGeometry x="600" y="520" width="40" height="40" as="geometry" />
        </mxCell>
        <mxCell id="qbNoRBqUCLXTasIhkJyH-335" value="" style="rounded=0;whiteSpace=wrap;html=1;" vertex="1" parent="1">
          <mxGeometry x="480" y="560" width="40" height="40" as="geometry" />
        </mxCell>
        <mxCell id="qbNoRBqUCLXTasIhkJyH-336" value="" style="rounded=0;whiteSpace=wrap;html=1;" vertex="1" parent="1">
          <mxGeometry x="520" y="560" width="40" height="40" as="geometry" />
        </mxCell>
        <mxCell id="qbNoRBqUCLXTasIhkJyH-337" value="" style="rounded=0;whiteSpace=wrap;html=1;" vertex="1" parent="1">
          <mxGeometry x="560" y="560" width="40" height="40" as="geometry" />
        </mxCell>
        <mxCell id="qbNoRBqUCLXTasIhkJyH-338" value="" style="rounded=0;whiteSpace=wrap;html=1;" vertex="1" parent="1">
          <mxGeometry x="600" y="560" width="40" height="40" as="geometry" />
        </mxCell>
        <mxCell id="qbNoRBqUCLXTasIhkJyH-341" value="" style="endArrow=classic;html=1;rounded=0;" edge="1" parent="1">
          <mxGeometry width="50" height="50" relative="1" as="geometry">
            <mxPoint x="-240" y="260" as="sourcePoint" />
            <mxPoint x="-160" y="260" as="targetPoint" />
          </mxGeometry>
        </mxCell>
        <mxCell id="qbNoRBqUCLXTasIhkJyH-353" value="" style="shape=doubleArrow;direction=south;whiteSpace=wrap;html=1;fillColor=#f8cecc;strokeColor=#b85450;" vertex="1" parent="1">
          <mxGeometry x="-220" y="650" width="60" height="100" as="geometry" />
        </mxCell>
        <mxCell id="qbNoRBqUCLXTasIhkJyH-354" value="" style="shape=doubleArrow;direction=south;whiteSpace=wrap;html=1;rotation=-90;fillColor=#f8cecc;strokeColor=#b85450;" vertex="1" parent="1">
          <mxGeometry x="-220" y="650" width="60" height="100" as="geometry" />
        </mxCell>
        <mxCell id="qbNoRBqUCLXTasIhkJyH-355" value="" style="shape=doubleArrow;direction=south;whiteSpace=wrap;html=1;rotation=-45;fillColor=#f8cecc;strokeColor=#b85450;" vertex="1" parent="1">
          <mxGeometry x="-220" y="650" width="60" height="100" as="geometry" />
        </mxCell>
        <mxCell id="qbNoRBqUCLXTasIhkJyH-356" value="" style="shape=doubleArrow;direction=south;whiteSpace=wrap;html=1;rotation=45;fillColor=#f8cecc;strokeColor=#b85450;" vertex="1" parent="1">
          <mxGeometry x="-220" y="650" width="60" height="100" as="geometry" />
        </mxCell>
        <mxCell id="qbNoRBqUCLXTasIhkJyH-357" value="" style="shape=doubleArrow;direction=south;whiteSpace=wrap;html=1;fillColor=#f8cecc;strokeColor=#b85450;" vertex="1" parent="1">
          <mxGeometry x="-230" y="490" width="60" height="100" as="geometry" />
        </mxCell>
        <mxCell id="qbNoRBqUCLXTasIhkJyH-358" value="" style="shape=doubleArrow;direction=south;whiteSpace=wrap;html=1;rotation=-90;fillColor=#f8cecc;strokeColor=#b85450;" vertex="1" parent="1">
          <mxGeometry x="-230" y="490" width="60" height="100" as="geometry" />
        </mxCell>
        <mxCell id="qbNoRBqUCLXTasIhkJyH-362" value="" style="shape=doubleArrow;direction=south;whiteSpace=wrap;html=1;rotation=-90;fillColor=#f8cecc;strokeColor=#b85450;" vertex="1" parent="1">
          <mxGeometry x="-230" y="330" width="60" height="100" as="geometry" />
        </mxCell>
        <mxCell id="qbNoRBqUCLXTasIhkJyH-363" value="" style="rounded=0;whiteSpace=wrap;html=1;" vertex="1" parent="1">
          <mxGeometry x="80" y="640" width="40" height="40" as="geometry" />
        </mxCell>
        <mxCell id="qbNoRBqUCLXTasIhkJyH-364" value="" style="rounded=0;whiteSpace=wrap;html=1;" vertex="1" parent="1">
          <mxGeometry x="120" y="640" width="40" height="40" as="geometry" />
        </mxCell>
        <mxCell id="qbNoRBqUCLXTasIhkJyH-365" value="" style="rounded=0;whiteSpace=wrap;html=1;" vertex="1" parent="1">
          <mxGeometry x="160" y="640" width="40" height="40" as="geometry" />
        </mxCell>
        <mxCell id="qbNoRBqUCLXTasIhkJyH-366" value="" style="rounded=0;whiteSpace=wrap;html=1;" vertex="1" parent="1">
          <mxGeometry x="200" y="640" width="40" height="40" as="geometry" />
        </mxCell>
        <mxCell id="qbNoRBqUCLXTasIhkJyH-367" value="" style="rounded=0;whiteSpace=wrap;html=1;" vertex="1" parent="1">
          <mxGeometry x="80" y="680" width="40" height="40" as="geometry" />
        </mxCell>
        <mxCell id="qbNoRBqUCLXTasIhkJyH-368" value="" style="rounded=0;whiteSpace=wrap;html=1;fillColor=#f8cecc;strokeColor=#b85450;" vertex="1" parent="1">
          <mxGeometry x="120" y="680" width="40" height="40" as="geometry" />
        </mxCell>
        <mxCell id="qbNoRBqUCLXTasIhkJyH-369" value="" style="rounded=0;whiteSpace=wrap;html=1;" vertex="1" parent="1">
          <mxGeometry x="160" y="680" width="40" height="40" as="geometry" />
        </mxCell>
        <mxCell id="qbNoRBqUCLXTasIhkJyH-370" value="" style="rounded=0;whiteSpace=wrap;html=1;" vertex="1" parent="1">
          <mxGeometry x="200" y="680" width="40" height="40" as="geometry" />
        </mxCell>
        <mxCell id="qbNoRBqUCLXTasIhkJyH-371" value="" style="rounded=0;whiteSpace=wrap;html=1;" vertex="1" parent="1">
          <mxGeometry x="80" y="720" width="40" height="40" as="geometry" />
        </mxCell>
        <mxCell id="qbNoRBqUCLXTasIhkJyH-372" value="" style="rounded=0;whiteSpace=wrap;html=1;" vertex="1" parent="1">
          <mxGeometry x="120" y="720" width="40" height="40" as="geometry" />
        </mxCell>
        <mxCell id="qbNoRBqUCLXTasIhkJyH-373" value="" style="rounded=0;whiteSpace=wrap;html=1;" vertex="1" parent="1">
          <mxGeometry x="160" y="720" width="40" height="40" as="geometry" />
        </mxCell>
        <mxCell id="qbNoRBqUCLXTasIhkJyH-374" value="" style="rounded=0;whiteSpace=wrap;html=1;" vertex="1" parent="1">
          <mxGeometry x="200" y="720" width="40" height="40" as="geometry" />
        </mxCell>
        <mxCell id="qbNoRBqUCLXTasIhkJyH-375" value="" style="rounded=0;whiteSpace=wrap;html=1;" vertex="1" parent="1">
          <mxGeometry x="-120" y="640" width="40" height="40" as="geometry" />
        </mxCell>
        <mxCell id="qbNoRBqUCLXTasIhkJyH-376" value="" style="rounded=0;whiteSpace=wrap;html=1;" vertex="1" parent="1">
          <mxGeometry x="-80" y="640" width="40" height="40" as="geometry" />
        </mxCell>
        <mxCell id="qbNoRBqUCLXTasIhkJyH-377" value="" style="rounded=0;whiteSpace=wrap;html=1;" vertex="1" parent="1">
          <mxGeometry x="-40" y="640" width="40" height="40" as="geometry" />
        </mxCell>
        <mxCell id="qbNoRBqUCLXTasIhkJyH-378" value="" style="rounded=0;whiteSpace=wrap;html=1;" vertex="1" parent="1">
          <mxGeometry y="640" width="40" height="40" as="geometry" />
        </mxCell>
        <mxCell id="qbNoRBqUCLXTasIhkJyH-379" value="" style="rounded=0;whiteSpace=wrap;html=1;" vertex="1" parent="1">
          <mxGeometry x="-120" y="680" width="40" height="40" as="geometry" />
        </mxCell>
        <mxCell id="qbNoRBqUCLXTasIhkJyH-380" value="" style="rounded=0;whiteSpace=wrap;html=1;" vertex="1" parent="1">
          <mxGeometry x="-80" y="680" width="40" height="40" as="geometry" />
        </mxCell>
        <mxCell id="qbNoRBqUCLXTasIhkJyH-381" value="" style="rounded=0;whiteSpace=wrap;html=1;" vertex="1" parent="1">
          <mxGeometry x="-40" y="680" width="40" height="40" as="geometry" />
        </mxCell>
        <mxCell id="qbNoRBqUCLXTasIhkJyH-382" value="" style="rounded=0;whiteSpace=wrap;html=1;" vertex="1" parent="1">
          <mxGeometry y="680" width="40" height="40" as="geometry" />
        </mxCell>
        <mxCell id="qbNoRBqUCLXTasIhkJyH-383" value="" style="rounded=0;whiteSpace=wrap;html=1;fillColor=#f8cecc;strokeColor=#b85450;" vertex="1" parent="1">
          <mxGeometry x="-120" y="720" width="40" height="40" as="geometry" />
        </mxCell>
        <mxCell id="qbNoRBqUCLXTasIhkJyH-384" value="" style="rounded=0;whiteSpace=wrap;html=1;" vertex="1" parent="1">
          <mxGeometry x="-80" y="720" width="40" height="40" as="geometry" />
        </mxCell>
        <mxCell id="qbNoRBqUCLXTasIhkJyH-385" value="" style="rounded=0;whiteSpace=wrap;html=1;" vertex="1" parent="1">
          <mxGeometry x="-40" y="720" width="40" height="40" as="geometry" />
        </mxCell>
        <mxCell id="qbNoRBqUCLXTasIhkJyH-386" value="" style="rounded=0;whiteSpace=wrap;html=1;" vertex="1" parent="1">
          <mxGeometry y="720" width="40" height="40" as="geometry" />
        </mxCell>
        <mxCell id="qbNoRBqUCLXTasIhkJyH-387" value="" style="rounded=0;whiteSpace=wrap;html=1;fillColor=#f8cecc;strokeColor=#b85450;" vertex="1" parent="1">
          <mxGeometry x="280" y="640" width="40" height="40" as="geometry" />
        </mxCell>
        <mxCell id="qbNoRBqUCLXTasIhkJyH-388" value="" style="rounded=0;whiteSpace=wrap;html=1;" vertex="1" parent="1">
          <mxGeometry x="320" y="640" width="40" height="40" as="geometry" />
        </mxCell>
        <mxCell id="qbNoRBqUCLXTasIhkJyH-389" value="" style="rounded=0;whiteSpace=wrap;html=1;" vertex="1" parent="1">
          <mxGeometry x="360" y="640" width="40" height="40" as="geometry" />
        </mxCell>
        <mxCell id="qbNoRBqUCLXTasIhkJyH-390" value="" style="rounded=0;whiteSpace=wrap;html=1;" vertex="1" parent="1">
          <mxGeometry x="400" y="640" width="40" height="40" as="geometry" />
        </mxCell>
        <mxCell id="qbNoRBqUCLXTasIhkJyH-391" value="" style="rounded=0;whiteSpace=wrap;html=1;" vertex="1" parent="1">
          <mxGeometry x="280" y="680" width="40" height="40" as="geometry" />
        </mxCell>
        <mxCell id="qbNoRBqUCLXTasIhkJyH-392" value="" style="rounded=0;whiteSpace=wrap;html=1;" vertex="1" parent="1">
          <mxGeometry x="320" y="680" width="40" height="40" as="geometry" />
        </mxCell>
        <mxCell id="qbNoRBqUCLXTasIhkJyH-393" value="" style="rounded=0;whiteSpace=wrap;html=1;" vertex="1" parent="1">
          <mxGeometry x="360" y="680" width="40" height="40" as="geometry" />
        </mxCell>
        <mxCell id="qbNoRBqUCLXTasIhkJyH-394" value="" style="rounded=0;whiteSpace=wrap;html=1;" vertex="1" parent="1">
          <mxGeometry x="400" y="680" width="40" height="40" as="geometry" />
        </mxCell>
        <mxCell id="qbNoRBqUCLXTasIhkJyH-395" value="" style="rounded=0;whiteSpace=wrap;html=1;" vertex="1" parent="1">
          <mxGeometry x="280" y="720" width="40" height="40" as="geometry" />
        </mxCell>
        <mxCell id="qbNoRBqUCLXTasIhkJyH-396" value="" style="rounded=0;whiteSpace=wrap;html=1;" vertex="1" parent="1">
          <mxGeometry x="320" y="720" width="40" height="40" as="geometry" />
        </mxCell>
        <mxCell id="qbNoRBqUCLXTasIhkJyH-397" value="" style="rounded=0;whiteSpace=wrap;html=1;" vertex="1" parent="1">
          <mxGeometry x="360" y="720" width="40" height="40" as="geometry" />
        </mxCell>
        <mxCell id="qbNoRBqUCLXTasIhkJyH-398" value="" style="rounded=0;whiteSpace=wrap;html=1;" vertex="1" parent="1">
          <mxGeometry x="400" y="720" width="40" height="40" as="geometry" />
        </mxCell>
        <mxCell id="qbNoRBqUCLXTasIhkJyH-399" value="" style="rounded=0;whiteSpace=wrap;html=1;" vertex="1" parent="1">
          <mxGeometry x="480" y="640" width="40" height="40" as="geometry" />
        </mxCell>
        <mxCell id="qbNoRBqUCLXTasIhkJyH-400" value="" style="rounded=0;whiteSpace=wrap;html=1;fillColor=#f8cecc;strokeColor=#b85450;" vertex="1" parent="1">
          <mxGeometry x="520" y="640" width="40" height="40" as="geometry" />
        </mxCell>
        <mxCell id="qbNoRBqUCLXTasIhkJyH-401" value="" style="rounded=0;whiteSpace=wrap;html=1;" vertex="1" parent="1">
          <mxGeometry x="560" y="640" width="40" height="40" as="geometry" />
        </mxCell>
        <mxCell id="qbNoRBqUCLXTasIhkJyH-402" value="" style="rounded=0;whiteSpace=wrap;html=1;" vertex="1" parent="1">
          <mxGeometry x="600" y="640" width="40" height="40" as="geometry" />
        </mxCell>
        <mxCell id="qbNoRBqUCLXTasIhkJyH-403" value="" style="rounded=0;whiteSpace=wrap;html=1;" vertex="1" parent="1">
          <mxGeometry x="480" y="680" width="40" height="40" as="geometry" />
        </mxCell>
        <mxCell id="qbNoRBqUCLXTasIhkJyH-404" value="" style="rounded=0;whiteSpace=wrap;html=1;" vertex="1" parent="1">
          <mxGeometry x="520" y="680" width="40" height="40" as="geometry" />
        </mxCell>
        <mxCell id="qbNoRBqUCLXTasIhkJyH-405" value="" style="rounded=0;whiteSpace=wrap;html=1;" vertex="1" parent="1">
          <mxGeometry x="560" y="680" width="40" height="40" as="geometry" />
        </mxCell>
        <mxCell id="qbNoRBqUCLXTasIhkJyH-406" value="" style="rounded=0;whiteSpace=wrap;html=1;" vertex="1" parent="1">
          <mxGeometry x="600" y="680" width="40" height="40" as="geometry" />
        </mxCell>
        <mxCell id="qbNoRBqUCLXTasIhkJyH-407" value="" style="rounded=0;whiteSpace=wrap;html=1;" vertex="1" parent="1">
          <mxGeometry x="480" y="720" width="40" height="40" as="geometry" />
        </mxCell>
        <mxCell id="qbNoRBqUCLXTasIhkJyH-408" value="" style="rounded=0;whiteSpace=wrap;html=1;" vertex="1" parent="1">
          <mxGeometry x="520" y="720" width="40" height="40" as="geometry" />
        </mxCell>
        <mxCell id="qbNoRBqUCLXTasIhkJyH-409" value="" style="rounded=0;whiteSpace=wrap;html=1;" vertex="1" parent="1">
          <mxGeometry x="560" y="720" width="40" height="40" as="geometry" />
        </mxCell>
        <mxCell id="qbNoRBqUCLXTasIhkJyH-410" value="" style="rounded=0;whiteSpace=wrap;html=1;" vertex="1" parent="1">
          <mxGeometry x="600" y="720" width="40" height="40" as="geometry" />
        </mxCell>
        <mxCell id="qbNoRBqUCLXTasIhkJyH-475" value="" style="rounded=0;whiteSpace=wrap;html=1;" vertex="1" parent="1">
          <mxGeometry x="-60" y="800" width="40" height="40" as="geometry" />
        </mxCell>
        <mxCell id="qbNoRBqUCLXTasIhkJyH-476" value="" style="rounded=0;whiteSpace=wrap;html=1;" vertex="1" parent="1">
          <mxGeometry x="-20" y="800" width="40" height="40" as="geometry" />
        </mxCell>
        <mxCell id="qbNoRBqUCLXTasIhkJyH-477" value="" style="rounded=0;whiteSpace=wrap;html=1;" vertex="1" parent="1">
          <mxGeometry x="20" y="800" width="40" height="40" as="geometry" />
        </mxCell>
        <mxCell id="qbNoRBqUCLXTasIhkJyH-478" value="" style="rounded=0;whiteSpace=wrap;html=1;" vertex="1" parent="1">
          <mxGeometry x="60" y="800" width="40" height="40" as="geometry" />
        </mxCell>
        <mxCell id="qbNoRBqUCLXTasIhkJyH-479" value="" style="rounded=0;whiteSpace=wrap;html=1;" vertex="1" parent="1">
          <mxGeometry x="-60" y="840" width="40" height="40" as="geometry" />
        </mxCell>
        <mxCell id="qbNoRBqUCLXTasIhkJyH-480" value="" style="rounded=0;whiteSpace=wrap;html=1;" vertex="1" parent="1">
          <mxGeometry x="-20" y="840" width="40" height="40" as="geometry" />
        </mxCell>
        <mxCell id="qbNoRBqUCLXTasIhkJyH-481" value="" style="rounded=0;whiteSpace=wrap;html=1;" vertex="1" parent="1">
          <mxGeometry x="20" y="840" width="40" height="40" as="geometry" />
        </mxCell>
        <mxCell id="qbNoRBqUCLXTasIhkJyH-482" value="" style="rounded=0;whiteSpace=wrap;html=1;" vertex="1" parent="1">
          <mxGeometry x="60" y="840" width="40" height="40" as="geometry" />
        </mxCell>
        <mxCell id="qbNoRBqUCLXTasIhkJyH-483" value="" style="rounded=0;whiteSpace=wrap;html=1;" vertex="1" parent="1">
          <mxGeometry x="-60" y="880" width="40" height="40" as="geometry" />
        </mxCell>
        <mxCell id="qbNoRBqUCLXTasIhkJyH-484" value="" style="rounded=0;whiteSpace=wrap;html=1;" vertex="1" parent="1">
          <mxGeometry x="-20" y="880" width="40" height="40" as="geometry" />
        </mxCell>
        <mxCell id="qbNoRBqUCLXTasIhkJyH-485" value="" style="rounded=0;whiteSpace=wrap;html=1;" vertex="1" parent="1">
          <mxGeometry x="20" y="880" width="40" height="40" as="geometry" />
        </mxCell>
        <mxCell id="qbNoRBqUCLXTasIhkJyH-486" value="" style="rounded=0;whiteSpace=wrap;html=1;" vertex="1" parent="1">
          <mxGeometry x="60" y="880" width="40" height="40" as="geometry" />
        </mxCell>
        <mxCell id="qbNoRBqUCLXTasIhkJyH-487" value="" style="rounded=0;whiteSpace=wrap;html=1;" vertex="1" parent="1">
          <mxGeometry x="-80" y="820" width="40" height="40" as="geometry" />
        </mxCell>
        <mxCell id="qbNoRBqUCLXTasIhkJyH-488" value="" style="rounded=0;whiteSpace=wrap;html=1;" vertex="1" parent="1">
          <mxGeometry x="-40" y="820" width="40" height="40" as="geometry" />
        </mxCell>
        <mxCell id="qbNoRBqUCLXTasIhkJyH-489" value="" style="rounded=0;whiteSpace=wrap;html=1;" vertex="1" parent="1">
          <mxGeometry y="820" width="40" height="40" as="geometry" />
        </mxCell>
        <mxCell id="qbNoRBqUCLXTasIhkJyH-490" value="" style="rounded=0;whiteSpace=wrap;html=1;" vertex="1" parent="1">
          <mxGeometry x="40" y="820" width="40" height="40" as="geometry" />
        </mxCell>
        <mxCell id="qbNoRBqUCLXTasIhkJyH-491" value="" style="rounded=0;whiteSpace=wrap;html=1;" vertex="1" parent="1">
          <mxGeometry x="-80" y="860" width="40" height="40" as="geometry" />
        </mxCell>
        <mxCell id="qbNoRBqUCLXTasIhkJyH-492" value="" style="rounded=0;whiteSpace=wrap;html=1;" vertex="1" parent="1">
          <mxGeometry x="-40" y="860" width="40" height="40" as="geometry" />
        </mxCell>
        <mxCell id="qbNoRBqUCLXTasIhkJyH-493" value="" style="rounded=0;whiteSpace=wrap;html=1;" vertex="1" parent="1">
          <mxGeometry y="860" width="40" height="40" as="geometry" />
        </mxCell>
        <mxCell id="qbNoRBqUCLXTasIhkJyH-494" value="" style="rounded=0;whiteSpace=wrap;html=1;" vertex="1" parent="1">
          <mxGeometry x="40" y="860" width="40" height="40" as="geometry" />
        </mxCell>
        <mxCell id="qbNoRBqUCLXTasIhkJyH-495" value="" style="rounded=0;whiteSpace=wrap;html=1;" vertex="1" parent="1">
          <mxGeometry x="-80" y="900" width="40" height="40" as="geometry" />
        </mxCell>
        <mxCell id="qbNoRBqUCLXTasIhkJyH-496" value="" style="rounded=0;whiteSpace=wrap;html=1;" vertex="1" parent="1">
          <mxGeometry x="-40" y="900" width="40" height="40" as="geometry" />
        </mxCell>
        <mxCell id="qbNoRBqUCLXTasIhkJyH-497" value="" style="rounded=0;whiteSpace=wrap;html=1;" vertex="1" parent="1">
          <mxGeometry y="900" width="40" height="40" as="geometry" />
        </mxCell>
        <mxCell id="qbNoRBqUCLXTasIhkJyH-498" value="" style="rounded=0;whiteSpace=wrap;html=1;" vertex="1" parent="1">
          <mxGeometry x="40" y="900" width="40" height="40" as="geometry" />
        </mxCell>
        <mxCell id="qbNoRBqUCLXTasIhkJyH-499" value="" style="rounded=0;whiteSpace=wrap;html=1;" vertex="1" parent="1">
          <mxGeometry x="-100" y="840" width="40" height="40" as="geometry" />
        </mxCell>
        <mxCell id="qbNoRBqUCLXTasIhkJyH-500" value="" style="rounded=0;whiteSpace=wrap;html=1;" vertex="1" parent="1">
          <mxGeometry x="-60" y="840" width="40" height="40" as="geometry" />
        </mxCell>
        <mxCell id="qbNoRBqUCLXTasIhkJyH-501" value="" style="rounded=0;whiteSpace=wrap;html=1;" vertex="1" parent="1">
          <mxGeometry x="-20" y="840" width="40" height="40" as="geometry" />
        </mxCell>
        <mxCell id="qbNoRBqUCLXTasIhkJyH-502" value="" style="rounded=0;whiteSpace=wrap;html=1;" vertex="1" parent="1">
          <mxGeometry x="20" y="840" width="40" height="40" as="geometry" />
        </mxCell>
        <mxCell id="qbNoRBqUCLXTasIhkJyH-503" value="" style="rounded=0;whiteSpace=wrap;html=1;" vertex="1" parent="1">
          <mxGeometry x="-100" y="880" width="40" height="40" as="geometry" />
        </mxCell>
        <mxCell id="qbNoRBqUCLXTasIhkJyH-504" value="" style="rounded=0;whiteSpace=wrap;html=1;" vertex="1" parent="1">
          <mxGeometry x="-60" y="880" width="40" height="40" as="geometry" />
        </mxCell>
        <mxCell id="qbNoRBqUCLXTasIhkJyH-505" value="" style="rounded=0;whiteSpace=wrap;html=1;" vertex="1" parent="1">
          <mxGeometry x="-20" y="880" width="40" height="40" as="geometry" />
        </mxCell>
        <mxCell id="qbNoRBqUCLXTasIhkJyH-506" value="" style="rounded=0;whiteSpace=wrap;html=1;" vertex="1" parent="1">
          <mxGeometry x="20" y="880" width="40" height="40" as="geometry" />
        </mxCell>
        <mxCell id="qbNoRBqUCLXTasIhkJyH-507" value="" style="rounded=0;whiteSpace=wrap;html=1;" vertex="1" parent="1">
          <mxGeometry x="-100" y="920" width="40" height="40" as="geometry" />
        </mxCell>
        <mxCell id="qbNoRBqUCLXTasIhkJyH-508" value="" style="rounded=0;whiteSpace=wrap;html=1;" vertex="1" parent="1">
          <mxGeometry x="-60" y="920" width="40" height="40" as="geometry" />
        </mxCell>
        <mxCell id="qbNoRBqUCLXTasIhkJyH-509" value="" style="rounded=0;whiteSpace=wrap;html=1;" vertex="1" parent="1">
          <mxGeometry x="-20" y="920" width="40" height="40" as="geometry" />
        </mxCell>
        <mxCell id="qbNoRBqUCLXTasIhkJyH-510" value="" style="rounded=0;whiteSpace=wrap;html=1;" vertex="1" parent="1">
          <mxGeometry x="20" y="920" width="40" height="40" as="geometry" />
        </mxCell>
        <mxCell id="qbNoRBqUCLXTasIhkJyH-427" value="" style="rounded=0;whiteSpace=wrap;html=1;" vertex="1" parent="1">
          <mxGeometry x="-120" y="860" width="40" height="40" as="geometry" />
        </mxCell>
        <mxCell id="qbNoRBqUCLXTasIhkJyH-428" value="" style="rounded=0;whiteSpace=wrap;html=1;" vertex="1" parent="1">
          <mxGeometry x="-80" y="860" width="40" height="40" as="geometry" />
        </mxCell>
        <mxCell id="qbNoRBqUCLXTasIhkJyH-429" value="" style="rounded=0;whiteSpace=wrap;html=1;" vertex="1" parent="1">
          <mxGeometry x="-40" y="860" width="40" height="40" as="geometry" />
        </mxCell>
        <mxCell id="qbNoRBqUCLXTasIhkJyH-430" value="" style="rounded=0;whiteSpace=wrap;html=1;" vertex="1" parent="1">
          <mxGeometry y="860" width="40" height="40" as="geometry" />
        </mxCell>
        <mxCell id="qbNoRBqUCLXTasIhkJyH-431" value="" style="rounded=0;whiteSpace=wrap;html=1;" vertex="1" parent="1">
          <mxGeometry x="-120" y="900" width="40" height="40" as="geometry" />
        </mxCell>
        <mxCell id="qbNoRBqUCLXTasIhkJyH-432" value="" style="rounded=0;whiteSpace=wrap;html=1;" vertex="1" parent="1">
          <mxGeometry x="-80" y="900" width="40" height="40" as="geometry" />
        </mxCell>
        <mxCell id="qbNoRBqUCLXTasIhkJyH-433" value="" style="rounded=0;whiteSpace=wrap;html=1;" vertex="1" parent="1">
          <mxGeometry x="-40" y="900" width="40" height="40" as="geometry" />
        </mxCell>
        <mxCell id="qbNoRBqUCLXTasIhkJyH-434" value="" style="rounded=0;whiteSpace=wrap;html=1;" vertex="1" parent="1">
          <mxGeometry y="900" width="40" height="40" as="geometry" />
        </mxCell>
        <mxCell id="qbNoRBqUCLXTasIhkJyH-435" value="" style="rounded=0;whiteSpace=wrap;html=1;" vertex="1" parent="1">
          <mxGeometry x="-120" y="940" width="40" height="40" as="geometry" />
        </mxCell>
        <mxCell id="qbNoRBqUCLXTasIhkJyH-436" value="" style="rounded=0;whiteSpace=wrap;html=1;" vertex="1" parent="1">
          <mxGeometry x="-80" y="940" width="40" height="40" as="geometry" />
        </mxCell>
        <mxCell id="qbNoRBqUCLXTasIhkJyH-437" value="" style="rounded=0;whiteSpace=wrap;html=1;" vertex="1" parent="1">
          <mxGeometry x="-40" y="940" width="40" height="40" as="geometry" />
        </mxCell>
        <mxCell id="qbNoRBqUCLXTasIhkJyH-438" value="" style="rounded=0;whiteSpace=wrap;html=1;fillColor=#f8cecc;strokeColor=#b85450;" vertex="1" parent="1">
          <mxGeometry y="940" width="40" height="40" as="geometry" />
        </mxCell>
        <mxCell id="qbNoRBqUCLXTasIhkJyH-511" value="" style="rounded=0;whiteSpace=wrap;html=1;" vertex="1" parent="1">
          <mxGeometry x="180" y="801" width="40" height="40" as="geometry" />
        </mxCell>
        <mxCell id="qbNoRBqUCLXTasIhkJyH-512" value="" style="rounded=0;whiteSpace=wrap;html=1;" vertex="1" parent="1">
          <mxGeometry x="220" y="801" width="40" height="40" as="geometry" />
        </mxCell>
        <mxCell id="qbNoRBqUCLXTasIhkJyH-513" value="" style="rounded=0;whiteSpace=wrap;html=1;" vertex="1" parent="1">
          <mxGeometry x="260" y="801" width="40" height="40" as="geometry" />
        </mxCell>
        <mxCell id="qbNoRBqUCLXTasIhkJyH-514" value="" style="rounded=0;whiteSpace=wrap;html=1;" vertex="1" parent="1">
          <mxGeometry x="300" y="801" width="40" height="40" as="geometry" />
        </mxCell>
        <mxCell id="qbNoRBqUCLXTasIhkJyH-515" value="" style="rounded=0;whiteSpace=wrap;html=1;" vertex="1" parent="1">
          <mxGeometry x="180" y="841" width="40" height="40" as="geometry" />
        </mxCell>
        <mxCell id="qbNoRBqUCLXTasIhkJyH-516" value="" style="rounded=0;whiteSpace=wrap;html=1;" vertex="1" parent="1">
          <mxGeometry x="220" y="841" width="40" height="40" as="geometry" />
        </mxCell>
        <mxCell id="qbNoRBqUCLXTasIhkJyH-517" value="" style="rounded=0;whiteSpace=wrap;html=1;" vertex="1" parent="1">
          <mxGeometry x="260" y="841" width="40" height="40" as="geometry" />
        </mxCell>
        <mxCell id="qbNoRBqUCLXTasIhkJyH-518" value="" style="rounded=0;whiteSpace=wrap;html=1;" vertex="1" parent="1">
          <mxGeometry x="300" y="841" width="40" height="40" as="geometry" />
        </mxCell>
        <mxCell id="qbNoRBqUCLXTasIhkJyH-519" value="" style="rounded=0;whiteSpace=wrap;html=1;" vertex="1" parent="1">
          <mxGeometry x="180" y="881" width="40" height="40" as="geometry" />
        </mxCell>
        <mxCell id="qbNoRBqUCLXTasIhkJyH-520" value="" style="rounded=0;whiteSpace=wrap;html=1;" vertex="1" parent="1">
          <mxGeometry x="220" y="881" width="40" height="40" as="geometry" />
        </mxCell>
        <mxCell id="qbNoRBqUCLXTasIhkJyH-521" value="" style="rounded=0;whiteSpace=wrap;html=1;" vertex="1" parent="1">
          <mxGeometry x="260" y="881" width="40" height="40" as="geometry" />
        </mxCell>
        <mxCell id="qbNoRBqUCLXTasIhkJyH-522" value="" style="rounded=0;whiteSpace=wrap;html=1;" vertex="1" parent="1">
          <mxGeometry x="300" y="881" width="40" height="40" as="geometry" />
        </mxCell>
        <mxCell id="qbNoRBqUCLXTasIhkJyH-523" value="" style="rounded=0;whiteSpace=wrap;html=1;" vertex="1" parent="1">
          <mxGeometry x="160" y="821" width="40" height="40" as="geometry" />
        </mxCell>
        <mxCell id="qbNoRBqUCLXTasIhkJyH-524" value="" style="rounded=0;whiteSpace=wrap;html=1;" vertex="1" parent="1">
          <mxGeometry x="200" y="821" width="40" height="40" as="geometry" />
        </mxCell>
        <mxCell id="qbNoRBqUCLXTasIhkJyH-525" value="" style="rounded=0;whiteSpace=wrap;html=1;" vertex="1" parent="1">
          <mxGeometry x="240" y="821" width="40" height="40" as="geometry" />
        </mxCell>
        <mxCell id="qbNoRBqUCLXTasIhkJyH-526" value="" style="rounded=0;whiteSpace=wrap;html=1;" vertex="1" parent="1">
          <mxGeometry x="280" y="821" width="40" height="40" as="geometry" />
        </mxCell>
        <mxCell id="qbNoRBqUCLXTasIhkJyH-527" value="" style="rounded=0;whiteSpace=wrap;html=1;" vertex="1" parent="1">
          <mxGeometry x="160" y="861" width="40" height="40" as="geometry" />
        </mxCell>
        <mxCell id="qbNoRBqUCLXTasIhkJyH-528" value="" style="rounded=0;whiteSpace=wrap;html=1;" vertex="1" parent="1">
          <mxGeometry x="200" y="861" width="40" height="40" as="geometry" />
        </mxCell>
        <mxCell id="qbNoRBqUCLXTasIhkJyH-529" value="" style="rounded=0;whiteSpace=wrap;html=1;" vertex="1" parent="1">
          <mxGeometry x="240" y="861" width="40" height="40" as="geometry" />
        </mxCell>
        <mxCell id="qbNoRBqUCLXTasIhkJyH-530" value="" style="rounded=0;whiteSpace=wrap;html=1;" vertex="1" parent="1">
          <mxGeometry x="280" y="861" width="40" height="40" as="geometry" />
        </mxCell>
        <mxCell id="qbNoRBqUCLXTasIhkJyH-531" value="" style="rounded=0;whiteSpace=wrap;html=1;" vertex="1" parent="1">
          <mxGeometry x="160" y="901" width="40" height="40" as="geometry" />
        </mxCell>
        <mxCell id="qbNoRBqUCLXTasIhkJyH-532" value="" style="rounded=0;whiteSpace=wrap;html=1;" vertex="1" parent="1">
          <mxGeometry x="200" y="901" width="40" height="40" as="geometry" />
        </mxCell>
        <mxCell id="qbNoRBqUCLXTasIhkJyH-533" value="" style="rounded=0;whiteSpace=wrap;html=1;" vertex="1" parent="1">
          <mxGeometry x="240" y="901" width="40" height="40" as="geometry" />
        </mxCell>
        <mxCell id="qbNoRBqUCLXTasIhkJyH-534" value="" style="rounded=0;whiteSpace=wrap;html=1;" vertex="1" parent="1">
          <mxGeometry x="280" y="901" width="40" height="40" as="geometry" />
        </mxCell>
        <mxCell id="qbNoRBqUCLXTasIhkJyH-535" value="" style="rounded=0;whiteSpace=wrap;html=1;" vertex="1" parent="1">
          <mxGeometry x="140" y="841" width="40" height="40" as="geometry" />
        </mxCell>
        <mxCell id="qbNoRBqUCLXTasIhkJyH-536" value="" style="rounded=0;whiteSpace=wrap;html=1;" vertex="1" parent="1">
          <mxGeometry x="180" y="841" width="40" height="40" as="geometry" />
        </mxCell>
        <mxCell id="qbNoRBqUCLXTasIhkJyH-537" value="" style="rounded=0;whiteSpace=wrap;html=1;" vertex="1" parent="1">
          <mxGeometry x="220" y="841" width="40" height="40" as="geometry" />
        </mxCell>
        <mxCell id="qbNoRBqUCLXTasIhkJyH-538" value="" style="rounded=0;whiteSpace=wrap;html=1;" vertex="1" parent="1">
          <mxGeometry x="260" y="841" width="40" height="40" as="geometry" />
        </mxCell>
        <mxCell id="qbNoRBqUCLXTasIhkJyH-539" value="" style="rounded=0;whiteSpace=wrap;html=1;" vertex="1" parent="1">
          <mxGeometry x="140" y="881" width="40" height="40" as="geometry" />
        </mxCell>
        <mxCell id="qbNoRBqUCLXTasIhkJyH-540" value="" style="rounded=0;whiteSpace=wrap;html=1;" vertex="1" parent="1">
          <mxGeometry x="180" y="881" width="40" height="40" as="geometry" />
        </mxCell>
        <mxCell id="qbNoRBqUCLXTasIhkJyH-541" value="" style="rounded=0;whiteSpace=wrap;html=1;" vertex="1" parent="1">
          <mxGeometry x="220" y="881" width="40" height="40" as="geometry" />
        </mxCell>
        <mxCell id="qbNoRBqUCLXTasIhkJyH-542" value="" style="rounded=0;whiteSpace=wrap;html=1;" vertex="1" parent="1">
          <mxGeometry x="260" y="881" width="40" height="40" as="geometry" />
        </mxCell>
        <mxCell id="qbNoRBqUCLXTasIhkJyH-543" value="" style="rounded=0;whiteSpace=wrap;html=1;" vertex="1" parent="1">
          <mxGeometry x="140" y="921" width="40" height="40" as="geometry" />
        </mxCell>
        <mxCell id="qbNoRBqUCLXTasIhkJyH-544" value="" style="rounded=0;whiteSpace=wrap;html=1;" vertex="1" parent="1">
          <mxGeometry x="180" y="921" width="40" height="40" as="geometry" />
        </mxCell>
        <mxCell id="qbNoRBqUCLXTasIhkJyH-545" value="" style="rounded=0;whiteSpace=wrap;html=1;" vertex="1" parent="1">
          <mxGeometry x="220" y="921" width="40" height="40" as="geometry" />
        </mxCell>
        <mxCell id="qbNoRBqUCLXTasIhkJyH-546" value="" style="rounded=0;whiteSpace=wrap;html=1;fillColor=#f8cecc;strokeColor=#b85450;" vertex="1" parent="1">
          <mxGeometry x="260" y="921" width="40" height="40" as="geometry" />
        </mxCell>
        <mxCell id="qbNoRBqUCLXTasIhkJyH-547" value="" style="rounded=0;whiteSpace=wrap;html=1;" vertex="1" parent="1">
          <mxGeometry x="120" y="861" width="40" height="40" as="geometry" />
        </mxCell>
        <mxCell id="qbNoRBqUCLXTasIhkJyH-548" value="" style="rounded=0;whiteSpace=wrap;html=1;" vertex="1" parent="1">
          <mxGeometry x="160" y="861" width="40" height="40" as="geometry" />
        </mxCell>
        <mxCell id="qbNoRBqUCLXTasIhkJyH-549" value="" style="rounded=0;whiteSpace=wrap;html=1;" vertex="1" parent="1">
          <mxGeometry x="200" y="861" width="40" height="40" as="geometry" />
        </mxCell>
        <mxCell id="qbNoRBqUCLXTasIhkJyH-550" value="" style="rounded=0;whiteSpace=wrap;html=1;" vertex="1" parent="1">
          <mxGeometry x="240" y="861" width="40" height="40" as="geometry" />
        </mxCell>
        <mxCell id="qbNoRBqUCLXTasIhkJyH-551" value="" style="rounded=0;whiteSpace=wrap;html=1;" vertex="1" parent="1">
          <mxGeometry x="120" y="901" width="40" height="40" as="geometry" />
        </mxCell>
        <mxCell id="qbNoRBqUCLXTasIhkJyH-552" value="" style="rounded=0;whiteSpace=wrap;html=1;" vertex="1" parent="1">
          <mxGeometry x="160" y="901" width="40" height="40" as="geometry" />
        </mxCell>
        <mxCell id="qbNoRBqUCLXTasIhkJyH-553" value="" style="rounded=0;whiteSpace=wrap;html=1;" vertex="1" parent="1">
          <mxGeometry x="200" y="901" width="40" height="40" as="geometry" />
        </mxCell>
        <mxCell id="qbNoRBqUCLXTasIhkJyH-554" value="" style="rounded=0;whiteSpace=wrap;html=1;" vertex="1" parent="1">
          <mxGeometry x="240" y="901" width="40" height="40" as="geometry" />
        </mxCell>
        <mxCell id="qbNoRBqUCLXTasIhkJyH-555" value="" style="rounded=0;whiteSpace=wrap;html=1;" vertex="1" parent="1">
          <mxGeometry x="120" y="941" width="40" height="40" as="geometry" />
        </mxCell>
        <mxCell id="qbNoRBqUCLXTasIhkJyH-556" value="" style="rounded=0;whiteSpace=wrap;html=1;" vertex="1" parent="1">
          <mxGeometry x="160" y="941" width="40" height="40" as="geometry" />
        </mxCell>
        <mxCell id="qbNoRBqUCLXTasIhkJyH-557" value="" style="rounded=0;whiteSpace=wrap;html=1;" vertex="1" parent="1">
          <mxGeometry x="200" y="941" width="40" height="40" as="geometry" />
        </mxCell>
        <mxCell id="qbNoRBqUCLXTasIhkJyH-558" value="" style="rounded=0;whiteSpace=wrap;html=1;" vertex="1" parent="1">
          <mxGeometry x="240" y="941" width="40" height="40" as="geometry" />
        </mxCell>
        <mxCell id="qbNoRBqUCLXTasIhkJyH-559" value="" style="rounded=0;whiteSpace=wrap;html=1;" vertex="1" parent="1">
          <mxGeometry x="420" y="800" width="40" height="40" as="geometry" />
        </mxCell>
        <mxCell id="qbNoRBqUCLXTasIhkJyH-560" value="" style="rounded=0;whiteSpace=wrap;html=1;" vertex="1" parent="1">
          <mxGeometry x="460" y="800" width="40" height="40" as="geometry" />
        </mxCell>
        <mxCell id="qbNoRBqUCLXTasIhkJyH-561" value="" style="rounded=0;whiteSpace=wrap;html=1;" vertex="1" parent="1">
          <mxGeometry x="500" y="800" width="40" height="40" as="geometry" />
        </mxCell>
        <mxCell id="qbNoRBqUCLXTasIhkJyH-562" value="" style="rounded=0;whiteSpace=wrap;html=1;" vertex="1" parent="1">
          <mxGeometry x="540" y="800" width="40" height="40" as="geometry" />
        </mxCell>
        <mxCell id="qbNoRBqUCLXTasIhkJyH-563" value="" style="rounded=0;whiteSpace=wrap;html=1;" vertex="1" parent="1">
          <mxGeometry x="420" y="840" width="40" height="40" as="geometry" />
        </mxCell>
        <mxCell id="qbNoRBqUCLXTasIhkJyH-564" value="" style="rounded=0;whiteSpace=wrap;html=1;" vertex="1" parent="1">
          <mxGeometry x="460" y="840" width="40" height="40" as="geometry" />
        </mxCell>
        <mxCell id="qbNoRBqUCLXTasIhkJyH-565" value="" style="rounded=0;whiteSpace=wrap;html=1;" vertex="1" parent="1">
          <mxGeometry x="500" y="840" width="40" height="40" as="geometry" />
        </mxCell>
        <mxCell id="qbNoRBqUCLXTasIhkJyH-566" value="" style="rounded=0;whiteSpace=wrap;html=1;" vertex="1" parent="1">
          <mxGeometry x="540" y="840" width="40" height="40" as="geometry" />
        </mxCell>
        <mxCell id="qbNoRBqUCLXTasIhkJyH-567" value="" style="rounded=0;whiteSpace=wrap;html=1;" vertex="1" parent="1">
          <mxGeometry x="420" y="880" width="40" height="40" as="geometry" />
        </mxCell>
        <mxCell id="qbNoRBqUCLXTasIhkJyH-568" value="" style="rounded=0;whiteSpace=wrap;html=1;" vertex="1" parent="1">
          <mxGeometry x="460" y="880" width="40" height="40" as="geometry" />
        </mxCell>
        <mxCell id="qbNoRBqUCLXTasIhkJyH-569" value="" style="rounded=0;whiteSpace=wrap;html=1;" vertex="1" parent="1">
          <mxGeometry x="500" y="880" width="40" height="40" as="geometry" />
        </mxCell>
        <mxCell id="qbNoRBqUCLXTasIhkJyH-570" value="" style="rounded=0;whiteSpace=wrap;html=1;fillColor=#f8cecc;strokeColor=#b85450;" vertex="1" parent="1">
          <mxGeometry x="540" y="880" width="40" height="40" as="geometry" />
        </mxCell>
        <mxCell id="qbNoRBqUCLXTasIhkJyH-571" value="" style="rounded=0;whiteSpace=wrap;html=1;" vertex="1" parent="1">
          <mxGeometry x="400" y="820" width="40" height="40" as="geometry" />
        </mxCell>
        <mxCell id="qbNoRBqUCLXTasIhkJyH-572" value="" style="rounded=0;whiteSpace=wrap;html=1;" vertex="1" parent="1">
          <mxGeometry x="440" y="820" width="40" height="40" as="geometry" />
        </mxCell>
        <mxCell id="qbNoRBqUCLXTasIhkJyH-573" value="" style="rounded=0;whiteSpace=wrap;html=1;" vertex="1" parent="1">
          <mxGeometry x="480" y="820" width="40" height="40" as="geometry" />
        </mxCell>
        <mxCell id="qbNoRBqUCLXTasIhkJyH-574" value="" style="rounded=0;whiteSpace=wrap;html=1;" vertex="1" parent="1">
          <mxGeometry x="520" y="820" width="40" height="40" as="geometry" />
        </mxCell>
        <mxCell id="qbNoRBqUCLXTasIhkJyH-575" value="" style="rounded=0;whiteSpace=wrap;html=1;" vertex="1" parent="1">
          <mxGeometry x="400" y="860" width="40" height="40" as="geometry" />
        </mxCell>
        <mxCell id="qbNoRBqUCLXTasIhkJyH-576" value="" style="rounded=0;whiteSpace=wrap;html=1;" vertex="1" parent="1">
          <mxGeometry x="440" y="860" width="40" height="40" as="geometry" />
        </mxCell>
        <mxCell id="qbNoRBqUCLXTasIhkJyH-577" value="" style="rounded=0;whiteSpace=wrap;html=1;" vertex="1" parent="1">
          <mxGeometry x="480" y="860" width="40" height="40" as="geometry" />
        </mxCell>
        <mxCell id="qbNoRBqUCLXTasIhkJyH-578" value="" style="rounded=0;whiteSpace=wrap;html=1;" vertex="1" parent="1">
          <mxGeometry x="520" y="860" width="40" height="40" as="geometry" />
        </mxCell>
        <mxCell id="qbNoRBqUCLXTasIhkJyH-579" value="" style="rounded=0;whiteSpace=wrap;html=1;" vertex="1" parent="1">
          <mxGeometry x="400" y="900" width="40" height="40" as="geometry" />
        </mxCell>
        <mxCell id="qbNoRBqUCLXTasIhkJyH-580" value="" style="rounded=0;whiteSpace=wrap;html=1;" vertex="1" parent="1">
          <mxGeometry x="440" y="900" width="40" height="40" as="geometry" />
        </mxCell>
        <mxCell id="qbNoRBqUCLXTasIhkJyH-581" value="" style="rounded=0;whiteSpace=wrap;html=1;" vertex="1" parent="1">
          <mxGeometry x="480" y="900" width="40" height="40" as="geometry" />
        </mxCell>
        <mxCell id="qbNoRBqUCLXTasIhkJyH-582" value="" style="rounded=0;whiteSpace=wrap;html=1;" vertex="1" parent="1">
          <mxGeometry x="520" y="900" width="40" height="40" as="geometry" />
        </mxCell>
        <mxCell id="qbNoRBqUCLXTasIhkJyH-583" value="" style="rounded=0;whiteSpace=wrap;html=1;" vertex="1" parent="1">
          <mxGeometry x="380" y="840" width="40" height="40" as="geometry" />
        </mxCell>
        <mxCell id="qbNoRBqUCLXTasIhkJyH-584" value="" style="rounded=0;whiteSpace=wrap;html=1;" vertex="1" parent="1">
          <mxGeometry x="420" y="840" width="40" height="40" as="geometry" />
        </mxCell>
        <mxCell id="qbNoRBqUCLXTasIhkJyH-585" value="" style="rounded=0;whiteSpace=wrap;html=1;" vertex="1" parent="1">
          <mxGeometry x="460" y="840" width="40" height="40" as="geometry" />
        </mxCell>
        <mxCell id="qbNoRBqUCLXTasIhkJyH-586" value="" style="rounded=0;whiteSpace=wrap;html=1;" vertex="1" parent="1">
          <mxGeometry x="500" y="840" width="40" height="40" as="geometry" />
        </mxCell>
        <mxCell id="qbNoRBqUCLXTasIhkJyH-587" value="" style="rounded=0;whiteSpace=wrap;html=1;" vertex="1" parent="1">
          <mxGeometry x="380" y="880" width="40" height="40" as="geometry" />
        </mxCell>
        <mxCell id="qbNoRBqUCLXTasIhkJyH-588" value="" style="rounded=0;whiteSpace=wrap;html=1;" vertex="1" parent="1">
          <mxGeometry x="420" y="880" width="40" height="40" as="geometry" />
        </mxCell>
        <mxCell id="qbNoRBqUCLXTasIhkJyH-589" value="" style="rounded=0;whiteSpace=wrap;html=1;" vertex="1" parent="1">
          <mxGeometry x="460" y="880" width="40" height="40" as="geometry" />
        </mxCell>
        <mxCell id="qbNoRBqUCLXTasIhkJyH-590" value="" style="rounded=0;whiteSpace=wrap;html=1;" vertex="1" parent="1">
          <mxGeometry x="500" y="880" width="40" height="40" as="geometry" />
        </mxCell>
        <mxCell id="qbNoRBqUCLXTasIhkJyH-591" value="" style="rounded=0;whiteSpace=wrap;html=1;" vertex="1" parent="1">
          <mxGeometry x="380" y="920" width="40" height="40" as="geometry" />
        </mxCell>
        <mxCell id="qbNoRBqUCLXTasIhkJyH-592" value="" style="rounded=0;whiteSpace=wrap;html=1;" vertex="1" parent="1">
          <mxGeometry x="420" y="920" width="40" height="40" as="geometry" />
        </mxCell>
        <mxCell id="qbNoRBqUCLXTasIhkJyH-593" value="" style="rounded=0;whiteSpace=wrap;html=1;" vertex="1" parent="1">
          <mxGeometry x="460" y="920" width="40" height="40" as="geometry" />
        </mxCell>
        <mxCell id="qbNoRBqUCLXTasIhkJyH-594" value="" style="rounded=0;whiteSpace=wrap;html=1;" vertex="1" parent="1">
          <mxGeometry x="500" y="920" width="40" height="40" as="geometry" />
        </mxCell>
        <mxCell id="qbNoRBqUCLXTasIhkJyH-595" value="" style="rounded=0;whiteSpace=wrap;html=1;" vertex="1" parent="1">
          <mxGeometry x="360" y="860" width="40" height="40" as="geometry" />
        </mxCell>
        <mxCell id="qbNoRBqUCLXTasIhkJyH-596" value="" style="rounded=0;whiteSpace=wrap;html=1;" vertex="1" parent="1">
          <mxGeometry x="400" y="860" width="40" height="40" as="geometry" />
        </mxCell>
        <mxCell id="qbNoRBqUCLXTasIhkJyH-597" value="" style="rounded=0;whiteSpace=wrap;html=1;" vertex="1" parent="1">
          <mxGeometry x="440" y="860" width="40" height="40" as="geometry" />
        </mxCell>
        <mxCell id="qbNoRBqUCLXTasIhkJyH-598" value="" style="rounded=0;whiteSpace=wrap;html=1;" vertex="1" parent="1">
          <mxGeometry x="480" y="860" width="40" height="40" as="geometry" />
        </mxCell>
        <mxCell id="qbNoRBqUCLXTasIhkJyH-599" value="" style="rounded=0;whiteSpace=wrap;html=1;" vertex="1" parent="1">
          <mxGeometry x="360" y="900" width="40" height="40" as="geometry" />
        </mxCell>
        <mxCell id="qbNoRBqUCLXTasIhkJyH-600" value="" style="rounded=0;whiteSpace=wrap;html=1;" vertex="1" parent="1">
          <mxGeometry x="400" y="900" width="40" height="40" as="geometry" />
        </mxCell>
        <mxCell id="qbNoRBqUCLXTasIhkJyH-601" value="" style="rounded=0;whiteSpace=wrap;html=1;" vertex="1" parent="1">
          <mxGeometry x="440" y="900" width="40" height="40" as="geometry" />
        </mxCell>
        <mxCell id="qbNoRBqUCLXTasIhkJyH-602" value="" style="rounded=0;whiteSpace=wrap;html=1;" vertex="1" parent="1">
          <mxGeometry x="480" y="900" width="40" height="40" as="geometry" />
        </mxCell>
        <mxCell id="qbNoRBqUCLXTasIhkJyH-603" value="" style="rounded=0;whiteSpace=wrap;html=1;" vertex="1" parent="1">
          <mxGeometry x="360" y="940" width="40" height="40" as="geometry" />
        </mxCell>
        <mxCell id="qbNoRBqUCLXTasIhkJyH-604" value="" style="rounded=0;whiteSpace=wrap;html=1;" vertex="1" parent="1">
          <mxGeometry x="400" y="940" width="40" height="40" as="geometry" />
        </mxCell>
        <mxCell id="qbNoRBqUCLXTasIhkJyH-605" value="" style="rounded=0;whiteSpace=wrap;html=1;" vertex="1" parent="1">
          <mxGeometry x="440" y="940" width="40" height="40" as="geometry" />
        </mxCell>
        <mxCell id="qbNoRBqUCLXTasIhkJyH-606" value="" style="rounded=0;whiteSpace=wrap;html=1;" vertex="1" parent="1">
          <mxGeometry x="480" y="940" width="40" height="40" as="geometry" />
        </mxCell>
      </root>
    </mxGraphModel>
  </diagram>
</mxfile>
